<?xml version="1.0" encoding="UTF-8"?><svg id="a" xmlns="http://www.w3.org/2000/svg" width="2000" height="2000" xmlns:xlink="http://www.w3.org/1999/xlink" viewBox="0 0 2000 2000"><defs><clipPath id="g"><circle id="h" cx="1011.42" cy="1000" r="633.08" fill="none" stroke-width="0"/></clipPath><clipPath id="l"><path d="m1011.42,1714.81c-96.38,0-190.02-18.94-278.32-56.29-85.15-36.01-161.56-87.52-227.13-153.08-65.56-65.56-117.07-141.98-153.08-227.13-37.35-88.3-56.28-181.94-56.28-278.32s18.94-190.02,56.29-278.32c36.01-85.15,87.52-161.57,153.08-227.13,65.56-65.56,141.98-117.06,227.13-153.08,88.3-37.35,181.94-56.28,278.32-56.28s190.02,18.94,278.32,56.28c85.15,36.02,161.57,87.52,227.13,153.08,65.56,65.56,117.06,141.98,153.08,227.13,37.35,88.3,56.28,181.94,56.28,278.32s-18.94,190.02-56.29,278.32c-36.01,85.15-87.52,161.56-153.08,227.13-65.56,65.56-141.98,117.07-227.13,153.08-88.3,37.35-181.94,56.28-278.32,56.28Z" fill="none" stroke-width="0"/></clipPath></defs><g id="b"><path d="m1011.42,1776.89c-104.74,0-206.52-20.59-302.5-61.18-92.55-39.14-175.6-95.12-246.84-166.36-71.25-71.25-127.22-154.3-166.37-246.85-40.6-95.98-61.18-197.76-61.18-302.5s20.59-206.52,61.18-302.5c39.14-92.55,95.12-175.6,166.36-246.84,71.25-71.25,154.3-127.22,246.85-166.36,95.98-40.6,197.76-61.18,302.5-61.18s206.52,20.59,302.5,61.18c92.55,39.15,175.6,95.12,246.85,166.36,71.25,71.25,127.22,154.3,166.36,246.85,40.6,95.98,61.18,197.76,61.18,302.5s-20.59,206.52-61.18,302.5c-39.14,92.55-95.12,175.6-166.36,246.84-71.25,71.25-154.3,127.22-246.85,166.37-95.98,40.6-197.76,61.18-302.5,61.18Z" fill="#5999ae" stroke-width="0"/><path d="m1011.42,1756.22c-101.96,0-201.03-20.03-294.44-59.55-90.08-38.1-170.92-92.59-240.28-161.95-69.36-69.36-123.85-150.2-161.95-240.29-39.51-93.41-59.54-192.48-59.54-294.44s20.03-201.03,59.55-294.44c38.1-90.08,92.59-170.93,161.95-240.28,69.36-69.36,150.2-123.84,240.29-161.95,93.42-39.51,192.48-59.55,294.44-59.55s201.03,20.03,294.44,59.55c90.08,38.1,170.93,92.59,240.29,161.95,69.36,69.36,123.85,150.2,161.95,240.29,39.51,93.42,59.54,192.48,59.54,294.44s-20.03,201.03-59.55,294.44c-38.1,90.08-92.59,170.92-161.95,240.28-69.36,69.36-150.2,123.85-240.29,161.95-93.41,39.51-192.48,59.54-294.44,59.54Z" fill="#85bcd3" stroke-width="0"/><path d="m1011.42,1714.81c-96.39,0-190.03-18.93-278.31-56.27-85.15-36.01-161.56-87.52-227.13-153.09-65.57-65.57-117.08-141.99-153.09-227.14-37.34-88.28-56.27-181.92-56.27-278.31s18.93-190.03,56.27-278.31c36.01-85.15,87.52-161.57,153.09-227.13,65.57-65.57,141.99-117.07,227.14-153.09,88.28-37.34,181.92-56.27,278.31-56.27s190.03,18.93,278.31,56.27c85.15,36.02,161.57,87.52,227.14,153.09,65.57,65.57,117.08,141.99,153.09,227.14,37.34,88.28,56.27,181.92,56.27,278.31s-18.93,190.03-56.27,278.31c-36.01,85.15-87.52,161.56-153.09,227.13-65.57,65.57-141.99,117.08-227.14,153.09-88.28,37.34-181.92,56.27-278.31,56.27Z" fill="#b0d8ec" stroke-width="0"/><path d="m1011.42,1633.08c-85.39,0-168.32-16.76-246.47-49.82-75.41-31.89-143.09-77.52-201.18-135.61-58.09-58.09-103.71-125.78-135.61-201.18-33.06-78.15-49.82-161.08-49.82-246.47s16.76-168.32,49.82-246.47c31.89-75.41,77.52-143.09,135.61-201.18,58.09-58.09,125.78-103.71,201.18-135.61,78.15-33.06,161.08-49.82,246.47-49.82s168.32,16.76,246.47,49.82c75.41,31.89,143.09,77.52,201.18,135.61,58.09,58.09,103.71,125.78,135.61,201.18,33.06,78.15,49.82,161.08,49.82,246.47s-16.76,168.32-49.82,246.47c-31.89,75.41-77.52,143.09-135.61,201.18-58.09,58.09-125.78,103.71-201.18,135.61-78.15,33.06-161.08,49.82-246.47,49.82Z" fill="#cce6f8" stroke-width="0"/><circle cx="1011.42" cy="1000" r="457.3" fill="#e1effa" stroke-width="0"/></g><g id="c"><circle cx="421.29" cy="626.84" r="162.01" fill="#e58425" stroke-width="0"/><circle cx="421.29" cy="626.84" r="141.02" fill="#f5ce72" stroke-width="0"/></g><path id="d" d="m462.9,705.72c-18.84.88-37.21,4.16-53.86,13.53-4.17,2.35-15.56,11.67-17.95,12.15-7.93,1.6-22.92-2.11-33.06-1.64-40.48,1.85-70.64,24.14-98.47,52.03-143.52-13.87-148.47,169.82-3.68,162.59,13.74,26.49,42.13,47.48,69.92,56.55,47.29,15.43,93.45,3.45,129.91-29.65,3.07-2.79,12.46-15.22,13.45-15.44,5.94-1.35,11.52,9.57,16.34,13.66,40.39,34.23,112.69,52.63,145.12,9.96,44.82,25.6,97.02,2.54,140.91-25.5,50.78-32.45,62.11-98.88,16.01-141.75-4.65-4.32-24.4-16.03-25.61-17.9-3.37-5.2-6.18-21.38-10.54-29.99-16.99-33.53-54-56.52-91.24-53.36-19.49-109.63-170.86-112.88-197.25-5.24Z" fill="#fff" stroke-width="0"/><path id="e" d="m1788.87,839.13c-8.13-.46-15.9,1.02-22.94,3.95-8.97-13.57-22.9-23.62-39.41-27.44-6.95-26.47-30.27-46.66-59.07-48.29-12.08-.68-23.54,2.04-33.54,7.25-13.49-40.02-48.87-69.59-91.96-72.03-57.32-3.25-106.54,42.77-109.94,102.78-.25,4.39-.22,8.73.03,13.01-1.27-.17-2.54-.34-3.84-.41-28.76-1.63-53.39,20.37-55.02,49.13-1.6,28.35,19.75,52.64,47.9,54.89-1.42,8.14-.75,16.58,2.38,24.62,9.98,25.63,41.14,37.44,69.59,26.36,5.71-2.22,10.84-5.22,15.37-8.76,10.11,6.25,22.09,10.26,35.16,11,.71.04,1.4,0,2.11.02,15.5,20.35,38.92,33.93,65.76,35.45,32.62,1.85,62.23-14.58,79.73-40.74,8.86,10.3,21.46,17.08,35.77,17.89,26.53,1.5,49.56-18.05,54.31-44.72.58.05,1.14.15,1.72.19,28.76,1.63,53.39-20.37,55.02-49.13,1.63-28.76-20.37-53.39-49.13-55.02Z" fill="#fff" stroke-width="0"/><g id="f"><g clip-path="url(#g)"><g id="i"><path d="m1396.16,974.02c-1.49-1.2-3.77-1.28-5.62-.14-1.29-2.28-3.44-5.42-6.92-8.29-6.55-5.4-13.69-6.44-16.73-6.71.38-5.29.77-10.58,1.15-15.86h-8.94l.29-16.73h8.08l.87-15h-17.88l.58-12.98h-3.75c-.9-6.29-4.13-22.97-17.95-38.07-12.61-13.77-27.17-18.74-33.39-20.48-.29-1.23-.8-2.09-1.25-2.67-2.14-2.76-6.46-3.64-11-2.52v-2.88c2.4.23,4.34-1.37,4.54-3.03.23-1.89-1.73-4.19-4.54-4.04-.29-.94-.94-2.58-2.38-4.18-1.52-1.69-3.19-2.51-4.11-2.88v-2.74c2.7-.67,3.96-2.74,3.57-3.89-.32-.93-1.83-1.56-3.57-1.44.03-.91-.05-2.39-.65-4.07-.61-1.69-1.49-2.88-2.09-3.57-.45.52-1.41,1.79-1.69,3.68-.22,1.44.05,2.61.25,3.24-1.24.54-2.48,1.08-3.71,1.62-.07.42-.16,1.29.22,2.27.6,1.57,1.95,2.23,2.27,2.38.02.94.05,1.87.07,2.81-.52.19-1.99.8-2.99,2.38-.68,1.07-.85,2.11-.9,2.67-.89.7-1.78,1.39-2.67,2.09-2.69-.14-4.51,1.96-4.33,3.57.16,1.43,1.96,2.9,4.25,2.7v3.32c-5.21-1.04-10.06.23-12.37,3.5-.5.71-1.07,1.77-1.33,3.28-5.69,1.49-14.43,4.54-23.43,11.1-11.4,8.32-17.58,18.17-20.55,23.79h-1.87v-5.19l-6.06.14v-31.15h6.92l-.29-30.28-22.06.72c-3.23-12.47-13.93-47.04-47.16-74.85-28.98-24.26-59.57-30.38-72.68-32.23v-3.46c-2.14-2.09-6.11-5.43-12.01-7.68-5.62-2.14-10.57-2.36-13.52-2.27.25-.75.54-1.92.43-3.35-.2-2.64-1.6-4.43-2.16-5.08,1.5-.02,4.13-.24,7.03-1.62,3.45-1.64,5.47-4.05,6.38-5.3v-2.38c-.92-.92-2.31-2.11-4.22-3.14-1.97-1.06-3.78-1.58-5.08-1.84-.51-1.1-1.72-3.33-4.22-5.08-3.42-2.4-6.98-2.34-8.11-2.27v-2.81h2.16c.12-.11.91-.86.87-2.05-.04-1.26-.96-1.97-1.08-2.05-.73-.08-2.24-.34-3.79-1.41-1.59-1.1-2.38-2.48-2.7-3.14.27-.37.93-1.37.97-2.81.05-1.64-.72-2.79-.97-3.14,1.96-.59,5.23-1.88,8.33-4.76,5.11-4.75,6.29-10.65,6.6-12.65v-5.62h-14.17l.32-5.52h4.22c-.24-1.19-.93-3.82-3.14-6.27-2.49-2.77-5.43-3.7-6.6-4v-2.38h3.79l.11-3.03h-3.89v-5.08c.41-1.53.74-3.61.47-6.02-.79-6.93-5.99-11.07-7.28-12.04-1.3.97-6.49,5.11-7.28,12.04-.28,2.41.06,4.5.47,6.02v5.08h-3.89l.11,3.03h3.79v2.38c-1.17.3-4.11,1.23-6.6,4-2.2,2.46-2.9,5.08-3.14,6.27h4.22l.32,5.52h-14.17v5.62c.31,2.01,1.48,7.9,6.6,12.65,3.09,2.88,6.37,4.17,8.33,4.76-.25.35-1.03,1.5-.97,3.14.05,1.44.71,2.45.97,2.81-.33.66-1.11,2.04-2.7,3.14-1.54,1.07-3.05,1.33-3.79,1.41-.12.09-1.04.8-1.08,2.05-.04,1.2.75,1.95.87,2.05h2.16v2.81c-1.13-.07-4.7-.13-8.11,2.27-2.5,1.76-3.71,3.99-4.22,5.08-1.3.26-3.11.77-5.08,1.84-1.91,1.03-3.3,2.22-4.22,3.14v2.38c.91,1.25,2.93,3.66,6.38,5.3,2.9,1.38,5.54,1.61,7.03,1.62-.57.65-1.97,2.44-2.16,5.08-.11,1.43.18,2.61.43,3.35-2.95-.09-7.9.13-13.52,2.27-5.9,2.25-9.86,5.59-12.01,7.68v3.46c-13.11,1.85-43.7,7.98-72.68,32.23-33.23,27.81-43.93,62.38-47.16,74.85l-22.06-.72-.29,30.28h6.92v31.15l-6.06-.14v5.19h-1.87c-2.97-5.62-9.15-15.48-20.55-23.79-9-6.57-17.74-9.62-23.43-11.1-.27-1.51-.83-2.57-1.33-3.28-2.31-3.27-7.16-4.53-12.37-3.5v-3.32c2.29.2,4.09-1.27,4.25-2.7.18-1.61-1.64-3.71-4.33-3.57-.89-.7-1.78-1.39-2.67-2.09-.05-.56-.22-1.6-.9-2.67-1.01-1.58-2.47-2.19-2.99-2.38.02-.94.05-1.87.07-2.81.32-.15,1.67-.81,2.27-2.38.38-.98.29-1.85.22-2.27-1.24-.54-2.48-1.08-3.71-1.62.2-.64.47-1.81.25-3.24-.28-1.89-1.25-3.16-1.69-3.68-.6.69-1.49,1.88-2.09,3.57-.6,1.69-.67,3.16-.65,4.07-1.74-.12-3.25.51-3.57,1.44-.4,1.15.86,3.23,3.57,3.89v2.74c-.92.37-2.59,1.2-4.11,2.88-1.44,1.6-2.09,3.25-2.38,4.18-2.81-.15-4.78,2.15-4.54,4.04.21,1.66,2.14,3.26,4.54,3.03v2.88c-4.55-1.12-8.86-.24-11.01,2.52-.45.58-.96,1.44-1.25,2.67-6.22,1.74-20.78,6.71-33.39,20.48-13.83,15.1-17.06,31.78-17.95,38.07h-3.75l.58,12.98h-17.88l.87,15h8.08l.29,16.73h-8.94c.38,5.29.77,10.58,1.15,15.86-3.04.26-10.18,1.3-16.73,6.71-3.48,2.87-5.64,6.01-6.92,8.29-1.85-1.13-4.14-1.05-5.62.14-1.92,1.54-2.29,4.76-.43,7.07h16.15v8.65l23.36,36.34,13.84,1.69v34.08l-4.04-.43c-.07,14.71-.14,29.42-.22,44.13,111.48-.24,222.95-.48,334.43-.72,111.48.24,222.95.48,334.43.72-.07-14.71-.14-29.42-.22-44.13l-4.04.43v-34.08l13.84-1.69,23.36-36.34v-8.65h16.15c1.86-2.31,1.49-5.52-.43-7.07Z" fill="#e7af42" stroke-width="0"/><path d="m1793.42,1448.77v364.95H229.41v-364.95l.81-14.33,1.03-18.21-1.61-6.53c-.8-12.81.36-15.33,6.67-18.12l.1-16.05c13.15-.46,26.26-.26,39.37.1l1.22-3.35c1.36-14.66.75-31.95,3.82-46.21,4.36-20.16,6.58-25.12,7.07-47.43.1-4.6,3.54-9.75,1.06-13.82-1.47-2.35-5.21-1.88-6.8-5.47-2.88-6.46-1.73-27.2.99-37.06l1.4-8.82c-5.04-.61-8.74-2.71-9.26-7.78l28.24-18.94,8.11-48.1.87-.6v-32.56h2.38l-2.36-.02c1.17-2.5,4.84-9.36,12.79-13.02,3.15-1.47,6.08-2,8.31-2.2.46-2.08,1.81-7.07,6.19-11.53,4.85-4.96,10.49-6.27,12.53-6.66.24-1.21,2.9-12.83,12.93-16.6,3.11-1.16,6.02-1.23,8.19-1.04v-26.73h-4.29l-.54-20.04h9.64c11.95-14.02,28.32-30.71,49.83-46.92,20.73-15.62,40.52-26.5,56.8-34.07-.19.02-2.42.17-3.87-1.6-1.04-1.26-1.28-3.01-.66-4.55h4.53c1.26-1.92,3.23-4.35,6.15-6.47,7.73-5.59,16.41-4.81,18.97-4.48.46-1.87.89-3.75,1.35-5.62-.65.03-4.81.1-7.68-3.13-1.57-1.74-2.05-3.65-2.2-4.62.54-.99,1.7-2.74,3.8-4.2,2.47-1.72,4.92-2.1,6.08-2.2.19-.91.81-3.34,3-5.35,2.77-2.57,6.09-2.68,6.89-2.68.14-1.23.61-3.61,2.27-6.08,1.63-2.41,3.61-3.73,4.68-4.34v-3.21c-1.89-.56-5.91-2-9.43-5.75-4.48-4.75-5.37-10.21-5.57-12.1.17-1.3.32-2.61.5-3.91h8.43v-2.79c-2.57-.41-4.46-2.66-4.44-5.26.01-2.59,1.96-4.81,4.53-5.18h5.12l-.51-2.9c-.61-.32-1.89-1.16-2.38-2.67-.39-1.3-.03-2.52.48-3.68,1.89-4.33,6.16-9.12,7.51-10.58,1.36,1.46,5.64,6.25,7.51,10.58.51,1.16.89,2.38.48,3.68-.48,1.51-1.77,2.35-2.38,2.67l-.49,2.9h5.1c2.57.36,4.52,2.59,4.53,5.18.04,2.6-1.87,4.84-4.42,5.26v2.79h8.42c.16,1.3.33,2.61.49,3.91-.2,1.89-1.07,7.34-5.57,12.1-3.52,3.75-7.54,5.2-9.43,5.75v3.21c1.07.61,3.05,1.93,4.69,4.34,1.65,2.47,2.11,4.84,2.27,6.08.79,0,4.11.11,6.88,2.68,2.19,2.01,2.81,4.44,3,5.35,1.16.1,3.61.49,6.08,2.2,2.1,1.46,3.27,3.21,3.82,4.2-.17.97-.66,2.88-2.2,4.62-2.88,3.23-7.03,3.16-7.7,3.13.46,1.87.91,3.75,1.35,5.62,2.58-.33,11.25-1.11,18.97,4.48,2.93,2.12,4.89,4.55,6.15,6.47h4.55c.61,1.54.36,3.29-.68,4.55-1.46,1.77-3.68,1.62-3.87,1.6,16.3,7.58,36.09,18.46,56.8,34.07,21.51,16.21,37.89,32.9,49.85,46.92h9.62l-.54,20.04h-4.27v26.73c2.15-.19,5.07-.12,8.18,1.04,10.03,3.76,12.67,15.38,12.94,16.6,2.04.38,7.67,1.7,12.52,6.66,4.37,4.46,5.74,9.45,6.18,11.53,2.24.2,5.17.74,8.31,2.2,3.07,1.42,5.49,3.3,7.38,5.22,7.36-.93,16.23-1.49,25.77-1.49s18.39.56,25.75,1.49c1.89-1.92,4.32-3.8,7.38-5.22,3.14-1.47,6.08-2,8.31-2.2.46-2.08,1.81-7.07,6.18-11.53,4.86-4.96,10.49-6.27,12.54-6.66.24-1.21,2.9-12.83,12.92-16.6,3.12-1.16,6.03-1.23,8.2-1.04v-26.73h-4.29l-.53-20.04h9.62c11.97-14.02,28.33-30.71,49.84-46.92,20.73-15.62,40.51-26.5,56.8-34.07-.19.02-2.42.17-3.87-1.6-1.02-1.26-1.28-3.01-.66-4.55h4.53c1.26-1.92,3.23-4.35,6.15-6.47,7.73-5.59,16.41-4.81,18.97-4.48.46-1.87.89-3.75,1.34-5.62-.64.03-4.78.1-7.67-3.13-1.57-1.74-2.05-3.65-2.22-4.62.55-.99,1.71-2.74,3.8-4.2,2.47-1.72,4.92-2.1,6.08-2.2.19-.91.82-3.34,3-5.35,2.78-2.57,6.1-2.68,6.9-2.68.14-1.23.61-3.61,2.26-6.08,1.64-2.41,3.61-3.73,4.69-4.34v-3.21c-1.89-.56-5.91-2-9.43-5.75-4.48-4.75-5.37-10.21-5.58-12.1.18-1.3.33-2.61.51-3.91h8.43v-2.79c-2.57-.41-4.46-2.66-4.45-5.26.02-2.59,1.96-4.81,4.53-5.18h5.13l-.51-2.9c-.61-.32-1.89-1.16-2.38-2.67-.4-1.3-.03-2.52.47-3.68,1.89-4.33,6.17-9.12,7.52-10.58,1.36,1.46,5.64,6.25,7.51,10.58.51,1.16.89,2.38.48,3.68-.48,1.51-1.78,2.35-2.39,2.67l-.49,2.9h5.11c2.57.36,4.51,2.59,4.53,5.18.04,2.6-1.87,4.84-4.43,5.26v2.79h8.43c.15,1.3.33,2.61.49,3.91-.2,1.89-1.07,7.34-5.57,12.1-3.53,3.75-7.51,5.2-9.42,5.75v3.21c1.06.61,3.04,1.93,4.67,4.34,1.65,2.47,2.12,4.84,2.28,6.08.78,0,4.1.11,6.88,2.68,2.18,2.01,2.81,4.44,3,5.35,1.16.1,3.61.49,6.08,2.2,2.1,1.46,3.27,3.21,3.82,4.2-.17.97-.67,2.88-2.2,4.62-2.88,3.23-7.04,3.16-7.7,3.13.46,1.87.9,3.75,1.34,5.62,2.59-.33,11.26-1.11,18.98,4.48,2.93,2.12,4.87,4.55,6.15,6.47h4.54c.63,1.54.37,3.29-.67,4.55-1.47,1.77-3.68,1.62-3.87,1.6,16.3,7.58,36.08,18.46,56.8,34.07,21.51,16.21,37.89,32.9,49.85,46.92h9.62l-.54,20.04h-4.27v26.73c2.16-.19,5.07-.12,8.17,1.04,10.04,3.76,12.68,15.38,12.94,16.6,2.05.38,7.68,1.7,12.52,6.66,4.38,4.46,5.76,9.45,6.18,11.53,2.25.2,5.18.74,8.32,2.2,3.02,1.39,5.42,3.25,7.31,5.14,7.22-.89,15.82-1.41,25.03-1.41s17.36.49,24.46,1.34c1.82-1.75,4.1-3.46,6.91-4.75,3.15-1.47,6.08-2.02,8.32-2.2.43-2.09,1.8-7.07,6.18-11.54,4.84-4.95,10.47-6.26,12.52-6.64.26-1.21,2.89-12.86,12.94-16.6,3.08-1.17,6.01-1.23,8.18-1.04v-26.73h-4.28l-.54-20.04h9.62c11.97-14.02,28.34-30.71,49.85-46.92,20.72-15.62,40.5-26.5,56.8-34.07-.18.02-2.41.17-3.86-1.62-1.04-1.24-1.3-3-.68-4.53h4.54c1.27-1.94,3.22-4.37,6.15-6.49,7.72-5.57,16.4-4.8,18.98-4.48.43-1.85.88-3.73,1.33-5.6-.66.01-4.81.08-7.7-3.15-1.54-1.74-2.02-3.65-2.2-4.6.56-.99,1.72-2.74,3.8-4.22,2.49-1.72,4.94-2.1,6.1-2.2.19-.91.82-3.32,3-5.33,2.78-2.59,6.08-2.68,6.88-2.68.15-1.23.61-3.63,2.28-6.09,1.62-2.42,3.61-3.72,4.67-4.35v-3.2c-1.89-.55-5.89-2.01-9.42-5.74-4.5-4.77-5.36-10.21-5.59-12.11.17-1.29.35-2.6.51-3.9h8.43v-2.81c-2.57-.39-4.46-2.64-4.45-5.25.04-2.6,1.98-4.8,4.55-5.17h5.11l-.51-2.9c-.61-.34-1.89-1.18-2.36-2.67-.42-1.3-.04-2.52.47-3.68,1.87-4.33,6.16-9.12,7.51-10.6,1.36,1.48,5.63,6.27,7.52,10.6.49,1.16.87,2.38.47,3.68-.49,1.49-1.77,2.33-2.38,2.67l-.51,2.9h5.11c2.59.36,4.53,2.57,4.55,5.17.01,2.61-1.88,4.85-4.45,5.25v2.81h8.43c.17,1.3.33,2.61.51,3.9-.21,1.9-1.09,7.33-5.57,12.11-3.55,3.73-7.55,5.2-9.44,5.74v3.2c1.08.63,3.05,1.93,4.67,4.35,1.67,2.46,2.12,4.85,2.28,6.09.8,0,4.12.09,6.9,2.68,2.16,2.01,2.81,4.42,3,5.33,1.14.1,3.61.49,6.08,2.2,2.09,1.48,3.25,3.23,3.8,4.22-.18.95-.65,2.86-2.2,4.6-2.88,3.23-7.04,3.16-7.68,3.15.43,1.87.88,3.75,1.34,5.6,2.57-.32,11.25-1.09,18.97,4.48,2.92,2.12,4.89,4.55,6.15,6.49h4.53c.63,1.53.36,3.29-.66,4.53-1.46,1.79-3.68,1.64-3.87,1.62,16.29,7.58,36.07,18.46,56.8,34.07,21.52,16.21,37.88,32.9,49.84,46.92h9.62l-.52,20.04h-4.3v26.73c2.17-.19,5.09-.13,8.2,1.04,10.01,3.74,12.65,15.38,12.92,16.6,2.05.38,7.68,1.7,12.54,6.64,4.37,4.47,5.72,9.45,6.18,11.54,2.23.18,5.18.74,8.31,2.2,7.94,3.66,11.6,10.52,12.8,13.02h-.16v32.63l.31.23,8.13,48.1,28.24,18.94c-.55,5.07-4.23,7.17-9.26,7.78l1.4,8.82c2.72,9.86,3.85,30.6.99,37.06-1.6,3.59-5.35,3.13-6.8,5.47-2.5,4.07.96,9.21,1.06,13.82.47,22.3,2.71,27.27,7.07,47.43,3.07,14.26,2.47,31.56,3.82,46.21l1.21,3.35c13.11-.36,26.24-.56,39.36-.1l.1,16.05c6.3,2.79,7.47,5.31,6.68,18.12l-1.62,6.53,1.04,18.21.82,14.33Z" fill="#e6ce6e" stroke-width="0"/></g></g></g><g id="j"><g id="k"><g clip-path="url(#l)"><g id="m"><path d="m1017.65,1014.47c9.99.32,24.62,1.97,41.02,8.25,12.92,4.95,22.91,11.23,29.97,16.46,2.25,58.28,4.03,117.24,5.31,176.87,3.23,150.68,3.05,427.93,0,570.49-17.25,3.21-31.86,5.04-42.84,6.14-11.13,1.11-20.6,2.04-33.46,2.04s-22.33-.92-33.46-2.04c-10.98-1.1-25.6-2.93-42.84-6.14-3.05-142.55-3.23-419.81,0-570.49,1.28-59.63,3.06-118.6,5.31-176.87,7.06-5.24,17.05-11.52,29.97-16.46,16.4-6.28,31.03-7.93,41.02-8.25Z" fill="#b78252" stroke-width="0"/></g></g></g><g id="n"><g id="o"><polygon points="1057.62 1124.8 1059.72 1422.73 1570.43 1395.58 1732.52 1181.25 1581.19 1025.48 1057.62 1124.8" fill="#d7a266" stroke-width="0"/><polyline points="1570.43 1395.58 1601.27 1394.48 1764.7 1180.87 1732.52 1181.25" fill="#b78252" stroke-width="0"/><polyline points="1732.52 1181.25 1764.7 1180.87 1606.58 1026.83 1581.19 1025.48" fill="#b78252" stroke-width="0"/></g><g id="p"><polygon points="965.4 1223.26 963.3 1521.19 452.59 1494.04 290.51 1279.71 441.83 1123.95 965.4 1223.26" fill="#d7a266" stroke-width="0"/><polyline points="452.66 1494.53 422.25 1492.94 259.27 1280.86 290.51 1279.71" fill="#b78252" stroke-width="0"/><polyline points="290.51 1279.71 259.27 1280.86 414.49 1132.03 441.83 1123.95" fill="#b78252" stroke-width="0"/></g></g></g></svg>