<?xml version="1.0" encoding="UTF-8"?><svg id="b" xmlns="http://www.w3.org/2000/svg" width="2000" height="2000" xmlns:xlink="http://www.w3.org/1999/xlink" viewBox="0 0 2000 2000"><defs><clipPath id="i"><circle id="j" cx="381.49" cy="554.79" r="26.41" fill="none" stroke-width="0"/></clipPath><clipPath id="l"><circle id="m" cx="466.36" cy="521.75" r="26.41" fill="none" stroke-width="0"/></clipPath><clipPath id="u"><circle id="v" cx="1017.39" cy="928.39" r="625.93" fill="none" stroke-width="0"/></clipPath><clipPath id="ak"><path d="m1017.39,1635.13c-95.29,0-187.87-18.72-275.18-55.65-84.19-35.61-159.74-86.53-224.56-151.35-64.82-64.82-115.74-140.38-151.35-224.57-36.93-87.3-55.65-179.89-55.65-275.18s18.72-187.87,55.65-275.18c35.61-84.19,86.53-159.74,151.35-224.56,64.82-64.82,140.37-115.74,224.56-151.35,87.3-36.93,179.89-55.65,275.18-55.65s187.87,18.72,275.18,55.65c84.19,35.61,159.75,86.53,224.56,151.35,64.82,64.82,115.74,140.37,151.35,224.56,36.93,87.3,55.65,179.89,55.65,275.18s-18.72,187.87-55.65,275.18c-35.61,84.19-86.53,159.74-151.35,224.56-64.82,64.82-140.38,115.74-224.57,151.35-87.3,36.93-179.89,55.65-275.18,55.65Z" fill="none" stroke-width="0"/></clipPath></defs><g id="c"><path d="m428.59,1618.66c-.94-.78-1.46-1.64-1.55-2.56-.09-.93.26-1.86,1.04-2.81l25.77-31.12c.78-.95,1.64-1.46,2.56-1.55.93-.09,1.86.26,2.81,1.04l12.49,10.34c2.55,2.11,4.41,4.3,5.58,6.57,1.16,2.26,1.63,4.51,1.41,6.74-.23,2.23-1.18,4.36-2.86,6.39-1.85,2.24-4.08,3.58-6.69,4.02-2.61.44-5.26-.02-7.97-1.38l.65-.79c2.3,2.49,3.53,5.15,3.68,7.95s-.83,5.49-2.94,8.04c-2.72,3.29-5.9,4.92-9.53,4.89-3.63-.03-7.41-1.67-11.33-4.91l-13.12-10.86Zm5.79-2.29l10.18,8.43c2.62,2.17,4.99,3.26,7.11,3.27s4.04-1.03,5.78-3.13c1.74-2.1,2.4-4.18,1.98-6.24-.42-2.06-1.94-4.17-4.57-6.35l-10.18-8.43-10.3,12.44Zm13.77-16.64l9.34,7.74c2.52,2.08,4.85,3.16,6.98,3.21,2.13.06,4.01-.89,5.64-2.85,1.62-1.96,2.2-3.98,1.75-6.07-.46-2.09-1.94-4.17-4.46-6.26l-9.34-7.73-9.91,11.97Z" fill="#2a346b" stroke-width="0"/><path d="m464.91,1648.84c-.73-.54-1.2-1.13-1.39-1.78s-.13-1.28.2-1.88c.33-.6.9-1.15,1.7-1.63l39.4-22.47c1.01-.61,1.93-.89,2.77-.84.84.05,1.6.33,2.3.84.66.48,1.14,1.12,1.44,1.9.3.78.31,1.75.03,2.9l-9.63,44.32c-.18.94-.52,1.66-1.01,2.18-.49.51-1.05.78-1.68.79-.63.01-1.31-.25-2.05-.78-.81-.59-1.3-1.26-1.48-2.02s-.15-1.68.11-2.79l2.69-11.72,1.45,3.43-23.4-17.18,3.66.32-10.32,6.12c-1.01.61-1.88.95-2.6,1.01-.72.06-1.45-.18-2.18-.71Zm39.95-21.14l-22.73,13.58-.41-2.33,19.39,14.23-2.23.39,6.08-25.79-.11-.08Z" fill="#2a346b" stroke-width="0"/><path d="m513.26,1682.75c-.95-.62-1.52-1.37-1.7-2.25-.18-.88.04-1.79.66-2.75l22.5-34.38c.65-.99,1.39-1.57,2.24-1.75s1.75.04,2.7.67c.95.62,1.51,1.36,1.69,2.21.18.85-.06,1.77-.7,2.76l-21.15,32.33,17.68,11.57c.84.55,1.34,1.19,1.51,1.92.17.74,0,1.5-.53,2.3-.52.8-1.16,1.28-1.92,1.43-.75.16-1.55-.04-2.39-.58l-20.58-13.47Z" fill="#2a346b" stroke-width="0"/><path d="m552.79,1689.75c-.7-.42-1.15-1.01-1.33-1.75-.19-.75-.08-1.45.32-2.12.42-.7,1-1.14,1.74-1.3.74-.17,1.46-.04,2.16.38l12.85,7.71c.66.4,1.09.96,1.29,1.69.2.73.09,1.44-.33,2.14-.4.66-.97,1.09-1.72,1.27-.75.19-1.45.08-2.12-.32l-12.85-7.71Z" fill="#2a346b" stroke-width="0"/><path d="m576.11,1721.29c-1.08-.58-1.76-1.32-2.02-2.21-.27-.89-.11-1.88.47-2.96l19.14-35.59c.58-1.08,1.32-1.75,2.21-2.02.89-.27,1.88-.11,2.96.47l14.28,7.68c2.92,1.57,5.17,3.35,6.76,5.34,1.59,1.99,2.49,4.1,2.71,6.33.22,2.23-.3,4.51-1.54,6.83-1.38,2.56-3.3,4.31-5.77,5.25-2.47.94-5.16,1.02-8.09.22l.48-.9c2.75,1.99,4.47,4.35,5.17,7.08.7,2.72.27,5.55-1.3,8.47-2.02,3.76-4.82,5.98-8.38,6.67-3.57.69-7.59-.18-12.07-2.58l-15-8.07Zm5.22-3.38l11.64,6.26c3,1.61,5.54,2.22,7.61,1.81,2.08-.4,3.76-1.81,5.05-4.21,1.29-2.4,1.53-4.57.71-6.5-.82-1.93-2.72-3.71-5.72-5.32l-11.64-6.26-7.65,14.22Zm10.23-19.02l10.68,5.75c2.88,1.55,5.37,2.14,7.48,1.78,2.1-.36,3.76-1.67,4.96-3.91,1.21-2.24,1.38-4.34.52-6.29-.86-1.96-2.72-3.71-5.61-5.26l-10.68-5.74-7.36,13.68Z" fill="#2a346b" stroke-width="0"/><path d="m617.69,1743.74c-.83-.38-1.4-.87-1.72-1.47s-.38-1.23-.18-1.88c.2-.66.65-1.3,1.35-1.93l34.19-29.8c.87-.8,1.72-1.25,2.55-1.37s1.64,0,2.42.37c.74.34,1.33.87,1.78,1.58.45.71.65,1.65.6,2.83l-.7,45.35c0,.96-.18,1.73-.56,2.33-.38.6-.88.97-1.49,1.11-.62.14-1.34.02-2.16-.36-.91-.42-1.52-.98-1.85-1.68-.33-.7-.47-1.62-.45-2.76l.32-12.02,2.1,3.08-26.33-12.22,3.65-.41-8.91,8.03c-.87.8-1.65,1.3-2.35,1.5s-1.46.11-2.28-.27Zm34.99-28.61l-19.6,17.79-.86-2.2,21.82,10.13-2.11.82.88-26.49-.12-.06Z" fill="#2a346b" stroke-width="0"/><path d="m671.78,1767.44c-1.05-.42-1.76-1.05-2.11-1.87-.35-.83-.32-1.77.1-2.82l15.26-38.15c.44-1.1,1.06-1.82,1.85-2.16.8-.34,1.72-.3,2.78.12,1.05.42,1.75,1.03,2.09,1.83.34.8.29,1.74-.14,2.84l-14.35,35.87,19.61,7.84c.93.37,1.55.9,1.86,1.59s.29,1.47-.06,2.36c-.35.89-.89,1.48-1.59,1.78-.71.3-1.53.27-2.46-.1l-22.84-9.13Z" fill="#2a346b" stroke-width="0"/><path d="m710.64,1782.87c-1.07-.38-1.78-.98-2.15-1.78s-.35-1.74.03-2.81l14.11-39.31c.4-1.11.99-1.85,1.78-2.22.78-.37,1.71-.36,2.78.02,1.07.38,1.79.97,2.16,1.75s.36,1.73-.04,2.84l-14.12,39.31c-.38,1.07-.96,1.8-1.73,2.2s-1.71.4-2.82,0Z" fill="#2a346b" stroke-width="0"/><path d="m732.05,1790.35c-1.08-.34-1.82-.91-2.22-1.7-.39-.79-.42-1.73-.08-2.81l12.58-39.9c.36-1.13.91-1.88,1.68-2.26.76-.38,1.68-.4,2.77-.06,1.08.34,1.83.89,2.24,1.63.41.75.43,1.69.08,2.81l-5.57,17.68.13.04,26.04-13.01c.84-.4,1.6-.65,2.27-.75.67-.1,1.38-.03,2.12.2,1,.31,1.64.79,1.94,1.43s.29,1.3-.01,1.96c-.31.67-.89,1.22-1.74,1.67l-26.96,13.22,1.17-3.27,15.02,27.6c.55.98.72,1.87.52,2.66-.2.79-.64,1.36-1.32,1.69-.68.33-1.49.35-2.45.05-.87-.27-1.5-.67-1.92-1.17-.41-.51-.86-1.2-1.35-2.07l-14.55-26.38-.13-.04-5.8,18.39c-.34,1.08-.89,1.84-1.64,2.27-.75.43-1.7.47-2.82.11Z" fill="#2a346b" stroke-width="0"/><path d="m773.51,1803.1c-.88-.22-1.53-.6-1.96-1.13-.43-.53-.6-1.14-.52-1.82.08-.68.4-1.4.97-2.14l28.12-35.59c.71-.95,1.46-1.55,2.26-1.82.79-.27,1.61-.29,2.45-.08.79.2,1.47.61,2.04,1.22.57.61.94,1.51,1.11,2.67l7.67,44.71c.18.94.14,1.74-.12,2.4-.26.66-.68,1.12-1.26,1.37-.58.25-1.31.26-2.19.04-.97-.25-1.68-.69-2.13-1.31-.45-.63-.77-1.51-.95-2.63l-1.9-11.88,2.63,2.64-28.13-7.17,3.51-1.08-7.28,9.54c-.71.94-1.39,1.58-2.03,1.91-.65.33-1.41.38-2.29.16Zm29.13-34.56l-15.99,21.1-1.25-2,23.31,5.94-1.92,1.2-4.01-26.2-.13-.03Z" fill="#2a346b" stroke-width="0"/><path d="m864.65,1823.36c-2.06-.35-4.05-.85-5.97-1.5-1.92-.65-3.69-1.45-5.33-2.39-1.64-.95-3.07-2.01-4.3-3.18-.59-.61-.95-1.24-1.09-1.91-.14-.67-.1-1.3.11-1.88.21-.59.56-1.07,1.04-1.45.48-.38,1.02-.58,1.62-.59.6-.01,1.22.29,1.85.9,1.79,1.64,3.76,2.95,5.9,3.94,2.14.99,4.52,1.7,7.17,2.15,3.81.65,6.73.44,8.78-.62,2.05-1.06,3.25-2.68,3.63-4.88.3-1.79-.1-3.32-1.22-4.6-1.12-1.27-3.15-2.48-6.09-3.63l-6.94-2.7c-4.1-1.62-7.02-3.63-8.75-6.05-1.73-2.41-2.3-5.37-1.71-8.86.36-2.1,1.12-3.96,2.29-5.55,1.17-1.6,2.65-2.9,4.43-3.91,1.78-1.01,3.83-1.66,6.14-1.96,2.31-.3,4.76-.23,7.36.21,2.78.47,5.32,1.27,7.64,2.41,2.32,1.13,4.31,2.6,5.99,4.41.51.5.82,1.07.92,1.71s.04,1.24-.17,1.8c-.21.56-.55,1.01-1.02,1.35-.47.33-1.03.48-1.67.44-.64-.04-1.3-.37-1.97-.99-1.55-1.46-3.19-2.6-4.91-3.43-1.73-.82-3.69-1.42-5.88-1.79-2.2-.37-4.17-.36-5.92.03-1.75.39-3.16,1.12-4.24,2.18-1.08,1.06-1.76,2.42-2.04,4.08-.32,1.88.03,3.48,1.05,4.81,1.02,1.33,2.89,2.52,5.61,3.58l6.87,2.69c4.32,1.7,7.41,3.72,9.27,6.07,1.86,2.34,2.51,5.15,1.96,8.42-.36,2.11-1.11,3.92-2.24,5.46-1.14,1.53-2.59,2.77-4.36,3.72-1.77.94-3.82,1.55-6.15,1.82s-4.88.17-7.66-.3Z" fill="#2a346b" stroke-width="0"/><path d="m899.4,1828.58c-1.13-.12-1.96-.54-2.5-1.24-.54-.7-.75-1.61-.62-2.74l4.6-41.52c.13-1.17.53-2.03,1.21-2.57.68-.54,1.58-.75,2.71-.62,1.13.12,1.96.53,2.51,1.2.54.68.75,1.6.62,2.78l-1.94,17.47,26.75,2.97,1.94-17.47c.13-1.17.53-2.03,1.21-2.57.68-.54,1.58-.75,2.71-.62,1.13.12,1.95.53,2.47,1.2.52.67.71,1.6.58,2.77l-4.6,41.52c-.13,1.13-.52,1.98-1.17,2.54-.66.57-1.55.79-2.68.66-1.13-.12-1.96-.54-2.5-1.24-.54-.7-.75-1.61-.62-2.74l2.01-18.15-26.75-2.97-2.01,18.15c-.12,1.13-.52,1.98-1.17,2.54s-1.57.79-2.75.66Z" fill="#2a346b" stroke-width="0"/><path d="m956,1833.98c-1.13-.08-1.99-.45-2.55-1.13s-.82-1.58-.74-2.71l2.79-41.68c.08-1.18.44-2.05,1.1-2.62.65-.57,1.54-.82,2.68-.74,1.13.08,1.99.44,2.56,1.09.57.65.82,1.57.74,2.75l-2.79,41.68c-.08,1.13-.43,2-1.06,2.59-.63.59-1.54.85-2.71.77Z" fill="#2a346b" stroke-width="0"/><path d="m978.97,1834.86c-1.23-.03-2.16-.39-2.8-1.06-.64-.68-.95-1.63-.91-2.85l1.08-40.39c.03-1.23.39-2.16,1.06-2.8.68-.64,1.63-.94,2.85-.91l16.21.43c3.31.09,6.13.66,8.44,1.72,2.31,1.06,4.07,2.54,5.27,4.44,1.2,1.9,1.76,4.16,1.69,6.79-.08,2.91-1.01,5.34-2.78,7.29-1.78,1.95-4.15,3.23-7.12,3.83l.03-1.02c3.35.54,5.95,1.87,7.8,3.99,1.85,2.12,2.73,4.83,2.65,8.15-.11,4.27-1.61,7.51-4.49,9.73-2.88,2.22-6.86,3.26-11.94,3.12l-17.03-.45Zm3.14-5.37l13.21.35c3.41.09,5.94-.51,7.61-1.81,1.67-1.29,2.54-3.31,2.62-6.03.07-2.72-.69-4.77-2.29-6.13-1.6-1.36-4.1-2.09-7.51-2.18l-13.21-.35-.43,16.14Zm.58-21.59l12.12.32c3.27.09,5.76-.5,7.48-1.78,1.71-1.27,2.61-3.18,2.67-5.72.07-2.54-.72-4.5-2.37-5.86-1.65-1.36-4.1-2.09-7.37-2.17l-12.12-.32-.41,15.53Z" fill="#2a346b" stroke-width="0"/><path d="m1029.7,1835.95c-1.14.02-2.02-.29-2.64-.91-.62-.63-.94-1.51-.96-2.64l-.68-41.76c-.02-1.18.27-2.08.88-2.71.6-.62,1.47-.94,2.61-.96,1.13-.02,2.01.27,2.64.88.62.6.94,1.5.96,2.68l.68,41.76c.02,1.14-.26,2.03-.84,2.67-.58.65-1.46.98-2.64,1Z" fill="#2a346b" stroke-width="0"/><path d="m1052.31,1835.48c-1.13.06-2.02-.21-2.67-.81-.65-.6-1-1.47-1.06-2.6l-2.19-41.24c-.06-1.18.21-2.09.81-2.74.6-.65,1.47-1,2.61-1.06l16.26-.86c5.17-.27,9.23.74,12.17,3.04,2.94,2.3,4.53,5.7,4.77,10.19.15,2.9-.35,5.43-1.51,7.59-1.16,2.15-2.92,3.84-5.29,5.06-2.37,1.22-5.25,1.92-8.66,2.1l.56-.99,1.77-.09c1.81-.1,3.42.27,4.8,1.11,1.39.84,2.68,2.22,3.87,4.16l6.43,10.58c.5.79.75,1.56.77,2.31.02.75-.22,1.37-.72,1.85-.5.48-1.22.75-2.18.8-1,.05-1.81-.12-2.45-.52-.63-.4-1.23-1.01-1.77-1.85l-7.85-12.82c-1.05-1.72-2.2-2.85-3.46-3.4-1.26-.55-2.88-.77-4.88-.66l-7.69.41.88,16.67c.06,1.13-.19,2.04-.74,2.7s-1.42,1.03-2.6,1.09Zm2.18-25.77l11.64-.62c3.45-.18,6.02-1.05,7.71-2.59,1.69-1.54,2.46-3.75,2.31-6.61-.15-2.81-1.15-4.9-2.99-6.25-1.85-1.36-4.49-1.95-7.94-1.76l-11.64.62.91,17.21Z" fill="#2a346b" stroke-width="0"/><path d="m1103.46,1838.43c-.44.68-.94,1.09-1.49,1.23-.56.14-1.05.07-1.49-.2-.44-.28-.7-.7-.8-1.26-.1-.56.09-1.21.57-1.93.72-1.07,1.18-2.15,1.38-3.24.2-1.09.26-2.04.18-2.86l.43,1.74c-1.36.13-2.49-.17-3.4-.88-.91-.71-1.43-1.73-1.55-3.04-.12-1.27.17-2.33.87-3.19.7-.86,1.7-1.35,3.01-1.48,1.36-.12,2.47.24,3.35,1.09.88.85,1.4,2.14,1.55,3.86.09,1,.09,2.04-.02,3.15-.1,1.1-.35,2.25-.74,3.42-.39,1.18-1.01,2.38-1.86,3.59Z" fill="#2a346b" stroke-width="0"/><path d="m1141.44,1827.83c-.9.14-1.65.05-2.25-.26s-1-.81-1.2-1.46c-.2-.66-.18-1.44.04-2.35l11.73-43.81c.28-1.15.73-2,1.35-2.56.62-.56,1.36-.91,2.21-1.04.81-.13,1.59-.02,2.36.31.77.34,1.46,1.01,2.08,2.02l24.74,38.02c.54.79.82,1.54.84,2.25.02.71-.19,1.29-.62,1.75-.43.46-1.1.76-2,.9-.99.16-1.81.03-2.47-.37-.66-.4-1.3-1.08-1.91-2.04l-6.44-10.15,3.46,1.38-28.67,4.56,2.8-2.38-2.91,11.64c-.28,1.15-.65,2-1.11,2.56-.46.56-1.14.91-2.04,1.05Zm13.06-43.27l-6.33,25.71-1.94-1.35,23.76-3.78-1.29,1.86-14.06-22.47-.13.02Z" fill="#2a346b" stroke-width="0"/><path d="m1199.78,1817.74c-1.16.25-2.12.13-2.9-.35-.78-.48-1.3-1.33-1.55-2.52l-8.61-40.04c-.26-1.2-.13-2.19.37-2.97.5-.78,1.36-1.3,2.56-1.56l23.72-5.1c.98-.21,1.75-.13,2.32.23s.95.99,1.14,1.88c.2.93.12,1.69-.24,2.28-.36.59-1.03.99-2.01,1.2l-20.52,4.41,3.22,14.99,19.19-4.13c.89-.19,1.64-.11,2.25.25.61.36,1.01.98,1.2,1.87.2.93.1,1.7-.31,2.3-.41.6-1.05.99-1.94,1.18l-19.19,4.13,3.78,17.59c.53,2.44-.3,3.9-2.48,4.37Z" fill="#2a346b" stroke-width="0"/><path d="m1241.25,1808.31c-1.1.3-2.02.22-2.78-.24-.76-.45-1.29-1.23-1.58-2.33l-10.77-39.86c-.31-1.14-.24-2.09.22-2.85s1.23-1.29,2.33-1.58l15.72-4.25c5-1.35,9.18-1.21,12.54.42,3.36,1.63,5.62,4.62,6.8,8.96.76,2.81.79,5.39.11,7.73-.68,2.35-2.06,4.37-4.12,6.05-2.06,1.69-4.74,2.97-8.03,3.86l.34-1.08,1.71-.46c1.75-.47,3.4-.45,4.93.08,1.53.53,3.08,1.61,4.66,3.26l8.5,9c.65.67,1.06,1.37,1.24,2.1.17.73.07,1.38-.32,1.96-.39.57-1.04.99-1.96,1.24-.96.26-1.8.26-2.5,0-.7-.26-1.41-.74-2.12-1.44l-10.35-10.9c-1.38-1.46-2.75-2.33-4.09-2.6-1.34-.27-2.98-.15-4.91.37l-7.43,2.01,4.35,16.12c.3,1.1.24,2.03-.16,2.8-.4.77-1.18,1.31-2.32,1.61Zm-3.26-25.66l11.25-3.04c3.33-.9,5.67-2.28,7-4.15,1.33-1.87,1.62-4.18.88-6.94-.73-2.72-2.15-4.55-4.24-5.49s-4.8-.96-8.13-.06l-11.25,3.04,4.5,16.64Z" fill="#2a346b" stroke-width="0"/><path d="m1289.9,1794.39c-1.08.34-2.01.3-2.79-.12-.78-.42-1.33-1.18-1.67-2.26l-12.53-39.85c-.35-1.13-.33-2.07.07-2.84.4-.77,1.14-1.32,2.23-1.67,1.08-.34,2.01-.31,2.78.09.77.4,1.33,1.17,1.68,2.29l12.53,39.85c.34,1.08.32,2.02-.05,2.8-.37.78-1.12,1.35-2.25,1.71Z" fill="#2a346b" stroke-width="0"/><path d="m1328.55,1781.43c-4.57,1.65-8.82,2.11-12.75,1.4-3.93-.71-7.38-2.5-10.36-5.36s-5.33-6.66-7.04-11.41c-1.28-3.55-1.93-6.92-1.97-10.12-.04-3.2.51-6.14,1.63-8.84s2.86-5.07,5.19-7.12,5.2-3.68,8.62-4.91c2.52-.91,5.07-1.44,7.65-1.59,2.58-.15,4.95.1,7.12.77.9.21,1.58.6,2.05,1.18s.74,1.19.81,1.84c.07.65-.04,1.26-.32,1.82-.28.56-.75.98-1.39,1.26-.65.28-1.45.3-2.4.07-1.79-.56-3.64-.79-5.53-.69-1.89.1-3.78.49-5.66,1.17-3.25,1.17-5.74,2.83-7.48,4.97-1.74,2.15-2.72,4.71-2.96,7.69-.23,2.98.31,6.31,1.64,9.98,1.32,3.68,3.03,6.6,5.11,8.77,2.08,2.17,4.48,3.53,7.19,4.08s5.68.24,8.93-.93c1.88-.68,3.59-1.59,5.13-2.75,1.54-1.16,2.89-2.55,4.04-4.17.6-.75,1.22-1.21,1.85-1.39.63-.18,1.24-.15,1.8.08.56.23,1.03.61,1.38,1.13.36.52.55,1.13.58,1.82s-.2,1.36-.69,2.02c-1.25,2.04-2.93,3.86-5.07,5.44-2.13,1.59-4.5,2.85-7.11,3.79Z" fill="#2a346b" stroke-width="0"/><path d="m1355.07,1771.35c-.84.36-1.58.45-2.25.29-.66-.16-1.17-.54-1.52-1.13-.35-.59-.53-1.35-.53-2.29l.73-45.35c-.01-1.18.22-2.12.69-2.81.47-.69,1.1-1.21,1.89-1.55.75-.32,1.54-.41,2.37-.27.83.14,1.66.62,2.51,1.45l33.24,30.86c.71.63,1.17,1.29,1.36,1.98s.13,1.3-.17,1.85c-.31.55-.88,1-1.72,1.36-.92.39-1.75.47-2.49.25-.74-.23-1.52-.73-2.35-1.52l-8.72-8.28,3.69.5-26.7,11.39,2.13-2.98v12c.02,1.18-.14,2.1-.45,2.75s-.89,1.16-1.72,1.51Zm2.15-45.14l.11,26.48-2.21-.84,22.12-9.44-.8,2.12-19.1-18.37-.13.05Z" fill="#2a346b" stroke-width="0"/><path d="m1419.32,1724.68c-.73.38-1.46.45-2.19.21s-1.28-.69-1.63-1.38c-.38-.73-.44-1.45-.2-2.16.25-.71.73-1.26,1.46-1.63l13.32-6.88c.69-.35,1.39-.42,2.12-.21.72.21,1.27.68,1.65,1.41.35.69.41,1.4.18,2.13-.23.73-.7,1.28-1.38,1.63l-13.32,6.88Z" fill="#2a346b" stroke-width="0"/><path d="m1476.7,1710.92c-1.05.64-1.95.85-2.71.65-.76-.2-1.4-.73-1.92-1.59-.33-.54-.51-1.15-.54-1.82-.03-.67.04-1.43.21-2.28l4.37-20.81c.68-3.17.93-5.86.74-8.05s-.8-4.15-1.83-5.86c-1.32-2.18-2.98-3.43-4.98-3.75-2-.33-4.29.29-6.85,1.84-1.55.94-2.91,2.08-4.07,3.42-1.16,1.34-2.13,2.96-2.94,4.88-.35.74-.79,1.25-1.32,1.51-.53.27-1.08.34-1.66.21s-1.08-.41-1.5-.84c-.42-.43-.72-.97-.89-1.61-.17-.64-.09-1.33.26-2.07.86-2.17,2.15-4.22,3.84-6.15,1.7-1.93,3.64-3.56,5.81-4.87,2.84-1.72,5.5-2.73,7.99-3.05,2.49-.31,4.75.06,6.77,1.12,2.02,1.06,3.76,2.79,5.22,5.2.99,1.63,1.69,3.38,2.11,5.26.42,1.87.58,3.94.49,6.2-.09,2.26-.45,4.8-1.08,7.62l-4.29,19.49-1.02-1.69,18.54-11.22c.85-.52,1.65-.7,2.37-.56.73.15,1.33.63,1.83,1.44.49.82.64,1.59.45,2.32-.2.73-.72,1.35-1.58,1.87l-21.8,13.2Z" fill="#2a346b" stroke-width="0"/><path d="m1525.44,1680.79c-4.63,3.13-9.34,3.76-14.15,1.88-4.81-1.88-9.44-6.11-13.89-12.69-3.03-4.48-5.02-8.59-5.96-12.34-.95-3.75-.89-7.11.18-10.07,1.06-2.97,3.14-5.5,6.22-7.58,4.67-3.16,9.37-3.83,14.1-2.01,4.74,1.81,9.36,6.05,13.86,12.71,2.98,4.4,4.95,8.5,5.92,12.28s.94,7.18-.1,10.19c-1.04,3.01-3.1,5.55-6.19,7.64Zm-3.28-4.85c2.9-1.96,4.17-4.67,3.83-8.14s-2.32-7.88-5.94-13.22c-3.64-5.38-6.98-8.84-10.02-10.37-3.04-1.54-6.01-1.32-8.91.64-2.86,1.93-4.15,4.61-3.88,8.01.27,3.41,2.23,7.8,5.87,13.18,3.61,5.34,6.98,8.81,10.09,10.41,3.11,1.6,6.09,1.43,8.96-.5Z" fill="#2a346b" stroke-width="0"/><path d="m1553.14,1660.62c-.98.74-1.86,1.04-2.64.92-.78-.12-1.47-.59-2.07-1.39-.38-.51-.62-1.09-.73-1.76-.1-.66-.11-1.42-.02-2.29l2.26-21.14c.36-3.23.33-5.92-.07-8.09-.41-2.17-1.21-4.05-2.41-5.64-1.53-2.03-3.31-3.11-5.33-3.24-2.03-.12-4.24.72-6.63,2.52-1.45,1.09-2.69,2.36-3.7,3.81-1.01,1.45-1.83,3.17-2.43,5.16-.27.77-.66,1.32-1.16,1.64-.5.32-1.04.45-1.63.38s-1.12-.3-1.58-.69c-.46-.39-.81-.89-1.05-1.51-.24-.62-.22-1.31.05-2.08.64-2.24,1.71-4.41,3.21-6.51,1.5-2.09,3.26-3.9,5.29-5.43,2.65-1.99,5.2-3.27,7.65-3.83s4.73-.42,6.85.43c2.12.85,4.02,2.4,5.72,4.65,1.15,1.52,2.02,3.2,2.62,5.02.6,1.82.97,3.86,1.11,6.12.13,2.26.03,4.82-.31,7.69l-2.31,19.82-1.19-1.58,17.31-13.03c.8-.6,1.57-.87,2.3-.79.74.07,1.39.49,1.96,1.25.57.76.8,1.52.68,2.26-.12.75-.58,1.42-1.38,2.02l-20.36,15.32Z" fill="#2a346b" stroke-width="0"/><path d="m1599.89,1624.66c-2.96,2.47-6.08,3.86-9.35,4.16-3.27.3-6.58-.44-9.93-2.23-3.35-1.79-6.62-4.58-9.79-8.38-2.65-3.17-4.64-6.27-5.98-9.3-1.34-3.02-2.04-5.92-2.12-8.71-.07-2.78.48-5.4,1.65-7.86,1.17-2.46,2.96-4.69,5.37-6.7,1.57-1.31,3.4-2.38,5.49-3.21,2.09-.83,4.27-1.27,6.53-1.32.71-.06,1.33.09,1.85.46.51.37.9.82,1.16,1.34.26.52.36,1.07.31,1.65-.05.58-.29,1.09-.72,1.53-.43.45-1.05.71-1.86.8-1.91.12-3.61.48-5.08,1.09-1.47.61-2.79,1.39-3.94,2.35-2.16,1.8-3.56,3.86-4.18,6.15-.63,2.3-.45,4.81.53,7.55.98,2.73,2.76,5.65,5.35,8.76l3.71,4.45-.58.48c-1.33-2.09-2.1-4.21-2.33-6.35-.23-2.15.09-4.2.94-6.16.85-1.95,2.17-3.67,3.95-5.16,2.16-1.8,4.49-2.89,7-3.26,2.5-.37,4.96-.07,7.37.91,2.41.98,4.56,2.6,6.45,4.87,1.95,2.34,3.19,4.85,3.72,7.54.53,2.69.33,5.3-.61,7.83-.94,2.53-2.58,4.77-4.91,6.72Zm-3.98-4.13c1.43-1.19,2.42-2.55,2.98-4.08.56-1.53.66-3.11.31-4.74-.35-1.63-1.15-3.19-2.41-4.69-1.25-1.5-2.64-2.56-4.16-3.18-1.52-.62-3.1-.8-4.72-.55-1.62.26-3.15.98-4.58,2.17-1.43,1.19-2.41,2.56-2.93,4.09-.53,1.53-.63,3.11-.31,4.74.32,1.63,1.11,3.19,2.36,4.69,1.25,1.5,2.66,2.56,4.21,3.19,1.56.62,3.13.81,4.72.55,1.59-.26,3.1-.99,4.53-2.18Z" fill="#2a346b" stroke-width="0"/></g><g id="d"><path d="m1017.39,1696.51c-103.56,0-204.19-20.35-299.09-60.49-91.5-38.7-173.62-94.04-244.06-164.48-70.44-70.44-125.79-152.56-164.49-244.06-40.14-94.9-60.49-195.52-60.49-299.08s20.35-204.18,60.49-299.09c38.7-91.5,94.04-173.62,164.48-244.06,70.44-70.44,152.56-125.78,244.06-164.49,94.9-40.14,195.53-60.49,299.09-60.49s204.18,20.35,299.08,60.49c91.51,38.7,173.62,94.04,244.06,164.49,70.44,70.44,125.78,152.56,164.49,244.06,40.14,94.9,60.49,195.53,60.49,299.08s-20.35,204.19-60.49,299.09c-38.7,91.5-94.04,173.62-164.48,244.06-70.44,70.44-152.56,125.79-244.06,164.49-94.9,40.14-195.52,60.49-299.08,60.49Z" fill="#589aae" stroke-width="0"/><path d="m1017.39,1676.07c-100.81,0-198.76-19.81-291.12-58.87-89.06-37.67-168.99-91.54-237.57-160.12-68.58-68.58-122.45-148.51-160.12-237.57-39.07-92.36-58.87-190.31-58.87-291.12s19.81-198.76,58.87-291.12c37.67-89.07,91.54-169,160.12-237.57,68.57-68.57,148.5-122.45,237.57-160.12,92.36-39.07,190.31-58.87,291.12-58.87s198.76,19.81,291.12,58.87c89.07,37.67,169,91.54,237.57,160.12,68.57,68.58,122.45,148.51,160.12,237.57,39.07,92.36,58.87,190.31,58.87,291.12s-19.81,198.76-58.87,291.12c-37.67,89.06-91.54,168.99-160.12,237.57-68.58,68.58-148.51,122.45-237.57,160.12-92.36,39.07-190.31,58.87-291.12,58.87Z" fill="#85bdd3" stroke-width="0"/><path d="m1017.39,1635.13c-95.3,0-187.88-18.72-275.17-55.64-84.18-35.61-159.74-86.53-224.57-151.36s-115.76-140.39-151.36-224.57c-36.92-87.29-55.64-179.87-55.64-275.17s18.72-187.88,55.64-275.17c35.61-84.19,86.53-159.74,151.36-224.57,64.83-64.83,140.38-115.75,224.57-151.36,87.29-36.92,179.87-55.64,275.17-55.64s187.88,18.72,275.17,55.64c84.19,35.61,159.74,86.53,224.57,151.36,64.83,64.83,115.75,140.38,151.36,224.57,36.92,87.29,55.64,179.87,55.64,275.17s-18.72,187.88-55.64,275.17c-35.61,84.18-86.53,159.74-151.36,224.57-64.83,64.83-140.39,115.76-224.57,151.36-87.29,36.92-179.87,55.64-275.17,55.64Z" fill="#b0d9ee" stroke-width="0"/><path d="m1017.39,1554.32c-84.43,0-166.42-16.57-243.69-49.26-74.56-31.53-141.48-76.64-198.91-134.08-57.43-57.43-102.54-124.36-134.08-198.91-32.68-77.27-49.26-159.26-49.26-243.69s16.57-166.42,49.26-243.69c31.53-74.55,76.64-141.48,134.08-198.91,57.43-57.43,124.36-102.54,198.91-134.08,77.27-32.68,159.26-49.26,243.69-49.26s166.42,16.57,243.69,49.26c74.56,31.53,141.48,76.64,198.91,134.08,57.43,57.43,102.54,124.36,134.08,198.91,32.68,77.27,49.26,159.26,49.26,243.69s-16.57,166.42-49.26,243.69c-31.53,74.56-76.64,141.48-134.08,198.91-57.43,57.43-124.36,102.54-198.91,134.08-77.27,32.68-159.26,49.26-243.69,49.26Z" fill="#cde7f8" stroke-width="0"/><circle cx="1017.39" cy="928.39" r="452.14" fill="#e2eff9" stroke-width="0"/></g><g id="e"><circle cx="433.92" cy="559.44" r="160.19" fill="#e78524" stroke-width="0"/><circle cx="433.92" cy="559.44" r="139.42" fill="#f5cf72" stroke-width="0"/><g id="f"><g id="g"><path d="m431.34,608.43c-1.3.05-2.39.05-3.23.03-13.31-.33-23.59-5.05-29.87-8.95-.77-.48-1.01-1.49-.53-2.27.48-.77,1.49-1.01,2.27-.53,5.94,3.68,15.65,8.14,28.22,8.46,4.28.11,15.56-.32,27.71-6.56,4.28-2.2,15.64-8.04,22.95-21.15,2.55-4.58,4.35-9.57,5.33-14.82.17-.89,1.02-1.48,1.92-1.31.89.17,1.48,1.03,1.31,1.92-1.05,5.6-2.97,10.92-5.69,15.81-7.8,13.99-19.8,20.16-24.32,22.48-10.46,5.37-20.32,6.66-26.07,6.89Z" fill="#894b21" stroke-width="0"/><path d="m491.93,564.43c-.65.03-1.28-.33-1.56-.96-.29-.64-1.19-2.21-3.25-3.09-1.77-.76-3.48-.61-4.33-.46-.89.16-1.75-.43-1.91-1.33-.16-.89.43-1.75,1.33-1.91,1.22-.22,3.65-.42,6.21.67,3.11,1.33,4.49,3.76,4.94,4.75.38.83.02,1.8-.81,2.18-.2.09-.41.14-.62.15Z" fill="#894b21" stroke-width="0"/><path d="m394.23,603.83c-.78.03-1.49-.49-1.67-1.28-.24-1.06-.6-3.85,1.27-7.01,1.5-2.54,3.71-4.06,4.88-4.73.79-.45,1.79-.18,2.25.61.45.79.18,1.79-.61,2.25-.9.51-2.57,1.66-3.69,3.55-1.27,2.14-1.05,3.93-.89,4.6.2.89-.35,1.77-1.24,1.97-.1.02-.2.04-.3.04Z" fill="#894b21" stroke-width="0"/></g><g id="h"><circle cx="381.49" cy="554.79" r="27.94" fill="#fffbca" stroke-width="0"/><path d="m379.95,528.43c14.56-.85,27.05,10.26,27.9,24.82s-10.26,27.05-24.82,27.9c-14.56.85-27.05-10.26-27.9-24.82-.85-14.56,10.26-27.05,24.82-27.9m-.18-3.06c-16.22.95-28.65,14.92-27.7,31.14.95,16.22,14.92,28.65,31.14,27.7,16.22-.95,28.65-14.92,27.7-31.14-.95-16.22-14.92-28.65-31.14-27.7h0Z" fill="#894b21" stroke-width="0"/><g clip-path="url(#i)"><circle cx="375.54" cy="550.03" r="26.41" fill="#fff" stroke-width="0"/></g><circle cx="382.4" cy="558.4" r="14.37" fill="#231f20" stroke-width="0"/><circle cx="385.26" cy="562.38" r="5.67" fill="#fff" stroke-width="0"/><path d="m336.94,536.78c.02-13.12,9.27-25.67,21.57-30.1,3.8-1.32,16.13-4.51,15.75,2.19-.16,1.26-.98,2.28-2.07,2.75-3.35,1.41-6.5,2.83-9.39,4.51-8.86,4.96-15.16,12.81-19.29,22.1-1.48,3.3-6.62,2.12-6.57-1.45h0Z" fill="#603913" stroke-width="0"/></g><g id="k"><path d="m467.98,549.64c-15.38.9-28.62-10.88-29.52-26.26-.9-15.38,10.88-28.62,26.26-29.52,15.38-.9,28.62,10.88,29.52,26.26.9,15.38-10.88,28.62-26.26,29.52Z" fill="#fffbca" stroke-width="0"/><path d="m464.82,495.39c14.56-.85,27.05,10.26,27.9,24.82.85,14.56-10.26,27.05-24.82,27.9-14.56.85-27.05-10.26-27.9-24.82-.85-14.56,10.26-27.05,24.82-27.9m-.18-3.06c-16.22.95-28.65,14.92-27.7,31.14.95,16.22,14.92,28.65,31.14,27.7,16.22-.95,28.65-14.92,27.7-31.14-.95-16.22-14.92-28.65-31.14-27.7h0Z" fill="#894b21" stroke-width="0"/><g clip-path="url(#l)"><circle cx="460.4" cy="516.99" r="26.41" fill="#fff" stroke-width="0"/></g><circle cx="467.26" cy="525.36" r="14.37" fill="#231f20" stroke-width="0"/><circle cx="469.99" cy="527.33" r="5.67" fill="#fff" stroke-width="0"/><path d="m430.76,483.33c5.28-12.01,18.79-19.79,31.83-18.92,4.01.32,16.59,2.34,13.54,8.33-.69,1.15-1.93,1.75-3.18,1.68-3.59-.05-6.96-.01-10.23.37-10.11.99-19.03,5.65-26.53,12.5-2.68,2.42-6.91-.71-5.44-3.96h0Z" fill="#603913" stroke-width="0"/></g><g id="n"><path id="o" d="m409.04,501.56c-.82.38-1.79.71-2.89.84-7.72.91-15.58-8.21-21.58-25.02-.25-.7.11-1.46.79-1.71.69-.24,1.45.13,1.7.83,5.37,15.06,12.55,23.97,18.74,23.24,2.26-.27,3.86-1.72,4.03-1.88,4.53-4.28,2.32-15.5-5.79-29.29-.38-.64-.17-1.46.45-1.83.62-.37,1.44-.15,1.82.49,9.04,15.39,10.99,27.27,5.34,32.6-.25.23-1.19,1.07-2.61,1.73Z" fill="#894b21" stroke-width="0"/><circle id="p" cx="401.51" cy="484.79" r="6.27" fill="#d25256" stroke-width="0"/></g></g><g id="q"><path d="m425.47,334.88c4.86,13.41,5.78,27.61,4.83,41.69-.41,4.67-1.09,9.35-2.58,14.06-.11.34-.47.53-.81.42-6.7-13.49-7.03-41.61-2.66-56.13.15-.57,1.02-.61,1.22-.05h0Z" fill="#e78524" stroke-width="0"/><path d="m314.33,369.19c10.91,9.19,18.81,21.02,25.02,33.69,1.98,4.25,3.73,8.64,4.8,13.47.08.35-.14.7-.49.77-.19.04-.39,0-.54-.12-3.9-3.03-7.12-6.5-10.11-10.11-5.94-7.25-10.83-15.16-14.85-23.62-1.96-4.26-3.74-8.64-4.86-13.43-.15-.57.58-1.04,1.03-.65h0Z" fill="#e78524" stroke-width="0"/><path d="m235.23,454.48c14.04,2.5,26.8,8.8,38.52,16.66,3.84,2.69,7.55,5.62,10.89,9.26.41.42.01,1.18-.57,1.08-14.13-2.3-26.76-8.86-38.48-16.73-3.83-2.71-7.56-5.61-10.93-9.2-.42-.42-.02-1.19.57-1.08h0Z" fill="#e78524" stroke-width="0"/><path d="m209.37,567.89c13.41-4.86,27.61-5.78,41.69-4.83,4.67.41,9.35,1.09,14.06,2.58.34.11.53.47.42.81-13.49,6.7-41.61,7.03-56.13,2.66-.57-.15-.61-1.02-.05-1.22h0Z" fill="#e78524" stroke-width="0"/><path d="m243.68,679.03c9.19-10.91,21.02-18.81,33.69-25.02,4.25-1.98,8.64-3.73,13.47-4.8.35-.08.7.14.77.49.04.19,0,.39-.12.54-3.03,3.9-6.5,7.12-10.11,10.11-7.25,5.94-15.16,10.83-23.62,14.85-4.26,1.96-8.64,3.74-13.43,4.86-.57.15-1.04-.58-.65-1.03h0Z" fill="#e78524" stroke-width="0"/><path d="m328.97,758.13c2.5-14.04,8.8-26.8,16.66-38.52,2.69-3.84,5.62-7.56,9.26-10.89.42-.41,1.18-.01,1.08.57-2.3,14.13-8.86,26.76-16.73,38.48-2.71,3.83-5.61,7.56-9.2,10.93-.42.42-1.19.02-1.08-.57h0Z" fill="#e78524" stroke-width="0"/><path d="m442.38,783.99c-4.86-13.41-5.78-27.61-4.83-41.69.41-4.67,1.09-9.35,2.58-14.07.11-.34.47-.53.81-.42,6.7,13.49,7.03,41.61,2.66,56.13-.15.57-1.02.61-1.22.05h0Z" fill="#e78524" stroke-width="0"/><path d="m553.52,749.68c-10.91-9.19-18.81-21.02-25.02-33.69-1.98-4.25-3.73-8.64-4.8-13.47-.08-.35.14-.7.49-.77.19-.04.39,0,.54.12,3.9,3.03,7.12,6.5,10.11,10.11,5.94,7.25,10.83,15.16,14.85,23.62,1.96,4.26,3.74,8.64,4.86,13.43.15.57-.58,1.04-1.03.65h0Z" fill="#e78524" stroke-width="0"/><path d="m632.62,664.39c-14.04-2.5-26.8-8.8-38.52-16.66-3.84-2.69-7.55-5.62-10.89-9.26-.41-.42-.01-1.18.57-1.08,14.13,2.3,26.76,8.86,38.48,16.73,3.83,2.71,7.56,5.61,10.93,9.2.42.42.02,1.19-.57,1.08h0Z" fill="#e78524" stroke-width="0"/><path d="m658.48,550.98c-13.41,4.86-27.61,5.78-41.69,4.83-4.67-.41-9.35-1.09-14.07-2.58-.34-.11-.53-.47-.42-.81,13.49-6.7,41.61-7.03,56.13-2.66.57.15.61,1.02.05,1.22h0Z" fill="#e78524" stroke-width="0"/><path d="m624.17,439.84c-9.19,10.91-21.02,18.81-33.69,25.02-4.25,1.98-8.64,3.73-13.47,4.8-.35.08-.7-.14-.77-.49-.04-.19,0-.39.12-.54,3.03-3.9,6.5-7.12,10.11-10.11,7.24-5.94,15.16-10.83,23.62-14.85,4.26-1.96,8.64-3.74,13.43-4.86.57-.15,1.04.58.65,1.03h0Z" fill="#e78524" stroke-width="0"/><path d="m538.88,360.74c-2.5,14.04-8.8,26.8-16.66,38.52-2.69,3.84-5.62,7.55-9.26,10.89-.42.41-1.18.01-1.08-.57,2.3-14.13,8.86-26.76,16.73-38.48,2.71-3.83,5.61-7.56,9.2-10.93.42-.42,1.19-.02,1.08.57h0Z" fill="#e78524" stroke-width="0"/><path d="m372.11,359.05c6.95,8.03,10.51,17.96,12.1,28.27.44,3.42.63,6.92.04,10.67-.06.37-.41.62-.78.57-8.9-8.51-14.07-27-12.52-39.14.06-.55.81-.78,1.16-.36h0Z" fill="#e78524" stroke-width="0"/><path d="m280.2,416.81c10.04,3.48,18.09,10.3,24.61,18.43,2.09,2.75,4,5.68,5.36,9.22.13.35-.04.74-.39.88-11.93-2.89-25.71-16.38-30.41-27.63-.22-.51.31-1.08.83-.9h0Z" fill="#e78524" stroke-width="0"/><path d="m229.48,512.78c10.43-2.01,20.81-.12,30.53,3.65,3.18,1.33,6.31,2.92,9.26,5.3.29.24.34.66.1.96-11.82,3.45-30.41-1.32-40.16-8.72-.45-.33-.27-1.09.27-1.19h0Z" fill="#e78524" stroke-width="0"/><path d="m233.54,621.25c8.03-6.95,17.96-10.51,28.27-12.1,3.42-.44,6.92-.63,10.67-.03.37.06.62.41.57.78-8.51,8.9-27,14.07-39.14,12.52-.55-.06-.78-.81-.36-1.16h0Z" fill="#e78524" stroke-width="0"/><path d="m291.3,713.16c3.48-10.04,10.3-18.09,18.43-24.61,2.75-2.09,5.68-4,9.22-5.36.35-.13.74.04.88.39-2.89,11.93-16.38,25.71-27.63,30.41-.51.22-1.08-.31-.9-.83h0Z" fill="#e78524" stroke-width="0"/><path d="m387.27,763.88c-2.01-10.43-.12-20.81,3.65-30.53,1.33-3.18,2.92-6.31,5.3-9.26.24-.29.66-.34.96-.1,3.45,11.82-1.32,30.42-8.72,40.16-.33.45-1.09.27-1.19-.27h0Z" fill="#e78524" stroke-width="0"/><path d="m495.74,759.82c-6.95-8.03-10.51-17.96-12.1-28.27-.44-3.42-.63-6.92-.04-10.67.06-.37.41-.62.78-.57,8.9,8.51,14.07,27,12.52,39.14-.06.55-.81.78-1.16.36h0Z" fill="#e78524" stroke-width="0"/><path d="m587.65,702.06c-10.04-3.48-18.09-10.3-24.61-18.43-2.09-2.75-4-5.68-5.36-9.22-.13-.35.04-.74.39-.88,11.93,2.89,25.71,16.38,30.41,27.63.22.51-.31,1.08-.83.9h0Z" fill="#e78524" stroke-width="0"/><path d="m638.37,606.09c-10.43,2.01-20.81.12-30.53-3.65-3.18-1.33-6.31-2.92-9.26-5.3-.29-.24-.34-.66-.1-.96,11.82-3.45,30.41,1.32,40.16,8.72.45.33.27,1.09-.27,1.19h0Z" fill="#e78524" stroke-width="0"/><path d="m634.31,497.62c-8.03,6.95-17.96,10.51-28.27,12.1-3.42.44-6.92.63-10.67.03-.37-.06-.62-.41-.57-.78,8.51-8.9,27-14.07,39.14-12.52.55.06.78.81.36,1.16h0Z" fill="#e78524" stroke-width="0"/><path d="m576.55,405.71c-3.48,10.04-10.3,18.09-18.43,24.61-2.75,2.09-5.68,4-9.22,5.36-.35.13-.74-.04-.88-.39,2.89-11.93,16.38-25.71,27.63-30.41.51-.22,1.08.31.9.83h0Z" fill="#e78524" stroke-width="0"/><path d="m480.58,354.99c2.01,10.43.12,20.81-3.65,30.53-1.33,3.18-2.92,6.31-5.3,9.26-.24.29-.66.34-.96.1-3.45-11.82,1.32-30.42,8.72-40.16.33-.45,1.09-.27,1.19.27h0Z" fill="#e78524" stroke-width="0"/></g></g><path id="r" d="m475.07,637.43c-18.63.87-36.79,4.11-53.25,13.38-4.12,2.32-15.39,11.54-17.75,12.02-7.84,1.58-22.66-2.08-32.69-1.62-40.03,1.83-69.84,23.87-97.36,51.45-141.9-13.71-146.8,167.9-3.64,160.76,13.59,26.19,41.65,46.94,69.13,55.91,46.76,15.26,92.39,3.41,128.44-29.31,3.03-2.75,12.32-15.05,13.3-15.27,5.87-1.34,11.39,9.46,16.16,13.5,39.93,33.84,111.42,52.04,143.48,9.85,44.31,25.32,95.93,2.52,139.32-25.21,50.21-32.08,61.41-97.76,15.83-140.15-4.6-4.27-24.12-15.85-25.32-17.7-3.33-5.14-6.11-21.13-10.42-29.65-16.8-33.15-53.39-55.88-90.21-52.76-19.27-108.39-168.93-111.61-195.03-5.18Z" fill="#fff" stroke-width="0"/><path id="s" d="m1786.06,769.34c-8.03-.45-15.72,1.01-22.68,3.91-8.87-13.42-22.64-23.35-38.96-27.13-6.87-26.17-29.93-46.14-58.4-47.75-11.94-.68-23.27,2.02-33.16,7.17-13.33-39.56-48.32-68.8-90.92-71.21-56.67-3.21-105.34,42.29-108.7,101.62-.25,4.34-.21,8.63.03,12.87-1.26-.16-2.51-.34-3.8-.41-28.44-1.61-52.79,20.14-54.4,48.57-1.59,28.03,19.53,52.04,47.36,54.27-1.41,8.05-.74,16.39,2.35,24.34,9.87,25.35,40.67,37.01,68.81,26.06,5.64-2.2,10.72-5.16,15.2-8.67,9.99,6.18,21.84,10.14,34.76,10.88.7.04,1.39,0,2.08.02,15.33,20.12,38.48,33.55,65.01,35.05,32.25,1.83,61.52-14.41,78.83-40.28,8.76,10.19,21.22,16.89,35.36,17.69,26.23,1.48,49-17.84,53.7-44.21.57.05,1.13.15,1.7.18,28.44,1.61,52.79-20.14,54.4-48.57,1.61-28.44-20.14-52.79-48.57-54.4Z" fill="#fff" stroke-width="0"/><g id="t"><g clip-path="url(#u)"><g id="w"><path d="m1397.79,902.7c-1.47-1.18-3.73-1.26-5.56-.14-1.27-2.26-3.41-5.36-6.84-8.2-6.48-5.34-13.53-6.37-16.54-6.63.38-5.23.76-10.46,1.14-15.68h-8.84l.29-16.54h7.98l.86-14.83h-17.68l.57-12.83h-3.71c-.89-6.22-4.08-22.71-17.75-37.64-12.46-13.61-26.86-18.53-33.01-20.25-.29-1.21-.79-2.06-1.24-2.64-2.12-2.73-6.38-3.6-10.88-2.49v-2.85c2.37.23,4.29-1.35,4.49-2.99.23-1.86-1.71-4.14-4.49-3.99-.29-.92-.93-2.55-2.35-4.13-1.5-1.67-3.16-2.48-4.06-2.85v-2.71c2.67-.66,3.92-2.71,3.53-3.85-.32-.92-1.81-1.54-3.53-1.43.02-.9-.04-2.36-.64-4.03-.6-1.67-1.47-2.85-2.07-3.53-.44.52-1.39,1.76-1.68,3.64-.21,1.42.05,2.58.25,3.21-1.22.53-2.45,1.07-3.67,1.6-.07.41-.16,1.28.21,2.25.6,1.55,1.93,2.21,2.25,2.35.02.93.05,1.85.07,2.78-.51.19-1.96.8-2.96,2.35-.68,1.06-.84,2.08-.89,2.64-.88.69-1.76,1.38-2.64,2.07-2.66-.14-4.46,1.94-4.28,3.53.16,1.42,1.94,2.87,4.21,2.67v3.28c-5.15-1.02-9.94.23-12.23,3.46-.49.7-1.05,1.75-1.32,3.24-5.63,1.47-14.27,4.49-23.17,10.98-11.27,8.23-17.38,17.97-20.32,23.53h-1.85v-5.13l-5.99.14v-30.8h6.84l-.29-29.94-21.82.71c-3.19-12.33-13.77-46.5-46.63-74-28.65-23.98-58.9-30.04-71.86-31.87v-3.42c-2.12-2.07-6.04-5.37-11.87-7.59-5.56-2.12-10.45-2.34-13.37-2.25.25-.74.53-1.9.43-3.32-.19-2.61-1.58-4.38-2.14-5.03,1.48-.02,4.08-.24,6.95-1.6,3.41-1.62,5.41-4,6.31-5.24v-2.35c-.91-.91-2.29-2.08-4.17-3.1-1.95-1.05-3.74-1.56-5.03-1.82-.5-1.09-1.7-3.29-4.17-5.03-3.38-2.37-6.9-2.31-8.02-2.25v-2.78h2.14c.12-.11.9-.85.86-2.03-.04-1.24-.95-1.95-1.07-2.03-.72-.08-2.22-.34-3.74-1.39-1.57-1.09-2.35-2.45-2.67-3.1.26-.36.92-1.35.96-2.78.05-1.62-.71-2.76-.96-3.1,1.93-.59,5.18-1.86,8.23-4.71,5.06-4.7,6.22-10.53,6.52-12.51v-5.56h-14.01l.32-5.45h4.17c-.24-1.18-.92-3.77-3.1-6.2-2.46-2.74-5.37-3.66-6.52-3.96v-2.35h3.74l.11-2.99h-3.85v-5.03c.41-1.51.74-3.57.46-5.95-.78-6.85-5.92-10.94-7.2-11.91-1.28.96-6.42,5.05-7.2,11.91-.27,2.39.06,4.44.46,5.95v5.03h-3.85l.11,2.99h3.74v2.35c-1.15.3-4.06,1.21-6.52,3.96-2.18,2.43-2.86,5.02-3.1,6.2h4.17l.32,5.45h-14.01v5.56c.3,1.98,1.47,7.81,6.52,12.51,3.06,2.84,6.3,4.12,8.23,4.71-.25.34-1.01,1.48-.96,3.1.05,1.43.7,2.42.96,2.78-.32.65-1.1,2.01-2.67,3.1-1.53,1.05-3.02,1.31-3.74,1.39-.12.09-1.03.79-1.07,2.03-.04,1.18.74,1.93.86,2.03h2.14v2.78c-1.12-.07-4.64-.13-8.02,2.25-2.47,1.74-3.67,3.94-4.17,5.03-1.28.26-3.08.77-5.03,1.82-1.88,1.02-3.26,2.19-4.17,3.1v2.35c.9,1.24,2.9,3.62,6.31,5.24,2.87,1.36,5.47,1.59,6.95,1.6-.56.64-1.95,2.41-2.14,5.03-.1,1.42.18,2.58.43,3.32-2.91-.09-7.81.13-13.37,2.25-5.83,2.22-9.75,5.52-11.87,7.59v3.42c-12.96,1.83-43.21,7.89-71.86,31.87-32.85,27.5-43.43,61.67-46.62,74l-21.82-.71-.29,29.94h6.84v30.8l-5.99-.14v5.13h-1.85c-2.94-5.56-9.05-15.3-20.32-23.53-8.9-6.49-17.54-9.51-23.17-10.98-.27-1.49-.82-2.54-1.32-3.24-2.28-3.23-7.08-4.48-12.23-3.46v-3.28c2.27.2,4.04-1.26,4.21-2.67.18-1.59-1.62-3.67-4.28-3.53-.88-.69-1.76-1.38-2.64-2.07-.05-.56-.22-1.58-.89-2.64-1-1.56-2.45-2.17-2.96-2.35.02-.93.05-1.85.07-2.78.31-.15,1.65-.8,2.25-2.35.37-.97.29-1.83.21-2.25-1.22-.53-2.45-1.07-3.67-1.6.2-.63.46-1.79.25-3.21-.28-1.87-1.23-3.12-1.68-3.64-.59.68-1.47,1.86-2.07,3.53-.6,1.67-.67,3.13-.64,4.03-1.72-.12-3.21.51-3.53,1.43-.39,1.14.86,3.19,3.53,3.85v2.71c-.91.37-2.56,1.18-4.06,2.85-1.43,1.58-2.06,3.21-2.35,4.13-2.78-.15-4.72,2.13-4.49,3.99.2,1.64,2.12,3.22,4.49,2.99v2.85c-4.5-1.11-8.76-.23-10.88,2.49-.45.58-.95,1.43-1.24,2.64-6.15,1.72-20.54,6.63-33.01,20.25-13.67,14.93-16.86,31.42-17.75,37.64h-3.71l.57,12.83h-17.68l.86,14.83h7.98l.29,16.54h-8.84c.38,5.23.76,10.46,1.14,15.68-3.01.26-10.06,1.29-16.54,6.63-3.44,2.83-5.57,5.94-6.84,8.2-1.83-1.12-4.09-1.04-5.56.14-1.9,1.53-2.27,4.7-.43,6.99h15.97v8.56l23.1,35.93,13.69,1.67v33.69l-3.99-.43c-.07,14.54-.14,29.09-.21,43.63,110.22-.24,220.43-.48,330.65-.71,110.22.24,220.43.48,330.65.71-.07-14.54-.14-29.09-.21-43.63l-3.99.43v-33.69l13.69-1.67,23.1-35.93v-8.56h15.97c1.84-2.28,1.47-5.46-.43-6.99Z" fill="#e9af42" stroke-width="0"/><path d="m1790.57,1372.09v360.83H244.22v-360.83l.8-14.17,1.02-18-1.59-6.46c-.79-12.67.36-15.16,6.59-17.92l.1-15.87c13-.45,25.96-.26,38.93.1l1.21-3.31c1.34-14.49.74-31.59,3.78-45.69,4.31-19.93,6.51-24.84,6.99-46.89.1-4.55,3.5-9.64,1.05-13.66-1.45-2.32-5.15-1.86-6.72-5.41-2.85-6.39-1.71-26.89.98-36.64l1.38-8.72c-4.98-.6-8.64-2.68-9.16-7.69l27.92-18.73,8.02-47.56.86-.59v-32.19h2.35l-2.33-.02c1.16-2.47,4.79-9.25,12.65-12.87,3.11-1.45,6.01-1.98,8.22-2.18.45-2.06,1.79-6.99,6.12-11.4,4.8-4.9,10.37-6.2,12.39-6.58.24-1.2,2.87-12.69,12.78-16.41,3.07-1.15,5.95-1.22,8.1-1.03v-26.43h-4.24l-.53-19.81h9.53c11.82-13.86,28-30.36,49.27-46.39,20.5-15.44,40.06-26.2,56.16-33.69-.19.02-2.39.17-3.83-1.58-1.03-1.25-1.27-2.98-.65-4.5h4.48c1.25-1.9,3.19-4.3,6.08-6.4,7.64-5.53,16.22-4.76,18.76-4.43.45-1.85.88-3.71,1.33-5.56-.64.03-4.76.1-7.59-3.09-1.55-1.72-2.03-3.61-2.18-4.57.53-.98,1.68-2.71,3.76-4.15,2.44-1.7,4.86-2.08,6.01-2.18.19-.9.8-3.3,2.97-5.29,2.74-2.54,6.02-2.65,6.81-2.65.14-1.22.6-3.57,2.24-6.01,1.61-2.38,3.57-3.69,4.63-4.29v-3.17c-1.87-.55-5.84-1.98-9.32-5.69-4.43-4.7-5.31-10.09-5.51-11.96.17-1.29.32-2.58.49-3.87h8.33v-2.76c-2.54-.41-4.41-2.63-4.39-5.2.01-2.56,1.94-4.76,4.48-5.12h5.06l-.5-2.87c-.6-.32-1.87-1.15-2.35-2.64-.39-1.29-.03-2.49.47-3.64,1.87-4.28,6.09-9.02,7.43-10.46,1.34,1.44,5.58,6.18,7.43,10.46.5,1.15.88,2.35.47,3.64-.47,1.49-1.75,2.32-2.35,2.64l-.48,2.87h5.04c2.54.36,4.47,2.56,4.48,5.12.04,2.57-1.85,4.79-4.37,5.2v2.76h8.32c.16,1.29.33,2.58.48,3.87-.2,1.87-1.06,7.26-5.51,11.96-3.48,3.71-7.45,5.14-9.32,5.69v3.17c1.06.6,3.02,1.91,4.64,4.29,1.63,2.44,2.09,4.79,2.24,6.01.78,0,4.06.11,6.8,2.65,2.17,1.99,2.78,4.39,2.97,5.29,1.15.1,3.57.48,6.01,2.18,2.08,1.44,3.23,3.17,3.78,4.15-.17.96-.65,2.85-2.18,4.57-2.85,3.19-6.95,3.12-7.61,3.09.45,1.85.9,3.71,1.33,5.56,2.55-.33,11.12-1.1,18.76,4.43,2.9,2.1,4.83,4.5,6.08,6.4h4.5c.6,1.52.36,3.25-.67,4.5-1.44,1.75-3.64,1.6-3.83,1.58,16.12,7.49,35.68,18.25,56.16,33.69,21.27,16.03,37.46,32.53,49.29,46.39h9.51l-.53,19.81h-4.22v26.43c2.13-.19,5.01-.12,8.09,1.03,9.92,3.72,12.53,15.21,12.79,16.41,2.02.38,7.58,1.68,12.38,6.58,4.32,4.41,5.68,9.34,6.11,11.4,2.21.2,5.11.73,8.22,2.18,3.04,1.4,5.43,3.26,7.3,5.16,7.28-.92,16.05-1.47,25.48-1.47s18.18.55,25.46,1.47c1.87-1.9,4.27-3.76,7.3-5.16,3.1-1.45,6.01-1.98,8.22-2.18.45-2.06,1.79-6.99,6.11-11.4,4.81-4.9,10.37-6.2,12.4-6.58.24-1.2,2.87-12.69,12.77-16.41,3.08-1.15,5.96-1.22,8.11-1.03v-26.43h-4.24l-.52-19.81h9.51c11.83-13.86,28.01-30.36,49.28-46.39,20.5-15.44,40.05-26.2,56.16-33.69-.19.02-2.39.17-3.83-1.58-1.01-1.25-1.27-2.98-.65-4.5h4.48c1.25-1.9,3.19-4.3,6.08-6.4,7.64-5.53,16.22-4.76,18.76-4.43.45-1.85.88-3.71,1.32-5.56-.63.03-4.73.1-7.58-3.09-1.55-1.72-2.03-3.61-2.19-4.57.54-.98,1.69-2.71,3.76-4.15,2.44-1.7,4.86-2.08,6.01-2.18.19-.9.81-3.3,2.97-5.29,2.75-2.54,6.03-2.65,6.82-2.65.14-1.22.6-3.57,2.23-6.01,1.62-2.38,3.57-3.69,4.64-4.29v-3.17c-1.87-.55-5.84-1.98-9.32-5.69-4.43-4.7-5.31-10.09-5.52-11.96.18-1.29.33-2.58.5-3.87h8.33v-2.76c-2.54-.41-4.41-2.63-4.4-5.2.02-2.56,1.94-4.76,4.48-5.12h5.07l-.5-2.87c-.6-.32-1.87-1.15-2.35-2.64-.4-1.29-.03-2.49.46-3.64,1.87-4.28,6.1-9.02,7.44-10.46,1.34,1.44,5.58,6.18,7.43,10.46.5,1.15.88,2.35.47,3.64-.47,1.49-1.76,2.32-2.36,2.64l-.48,2.87h5.05c2.54.36,4.46,2.56,4.48,5.12.04,2.57-1.85,4.79-4.38,5.2v2.76h8.33c.15,1.29.33,2.58.48,3.87-.2,1.87-1.06,7.26-5.51,11.96-3.49,3.71-7.43,5.14-9.31,5.69v3.17c1.05.6,3.01,1.91,4.62,4.29,1.63,2.44,2.1,4.79,2.25,6.01.77,0,4.05.11,6.8,2.65,2.16,1.99,2.78,4.39,2.97,5.29,1.15.1,3.57.48,6.01,2.18,2.08,1.44,3.23,3.17,3.78,4.15-.17.96-.66,2.85-2.18,4.57-2.85,3.19-6.96,3.12-7.61,3.09.45,1.85.89,3.71,1.32,5.56,2.56-.33,11.13-1.1,18.77,4.43,2.9,2.1,4.82,4.5,6.08,6.4h4.49c.62,1.52.37,3.25-.66,4.5-1.45,1.75-3.64,1.6-3.83,1.58,16.12,7.49,35.67,18.25,56.16,33.69,21.27,16.03,37.46,32.53,49.29,46.39h9.51l-.53,19.81h-4.22v26.43c2.14-.19,5.01-.12,8.08,1.03,9.93,3.72,12.54,15.21,12.79,16.41,2.03.38,7.59,1.68,12.38,6.58,4.33,4.41,5.69,9.34,6.11,11.4,2.22.2,5.12.73,8.23,2.18,2.99,1.37,5.36,3.21,7.23,5.08,7.14-.88,15.64-1.39,24.75-1.39s17.16.48,24.18,1.32c1.8-1.73,4.05-3.42,6.83-4.7,3.11-1.45,6.01-2,8.23-2.18.43-2.07,1.78-6.99,6.11-11.41,4.79-4.89,10.35-6.19,12.38-6.57.26-1.2,2.86-12.71,12.79-16.41,3.05-1.16,5.94-1.22,8.09-1.03v-26.43h-4.23l-.53-19.81h9.51c11.83-13.86,28.02-30.36,49.29-46.39,20.49-15.44,40.04-26.2,56.16-33.69-.18.02-2.38.17-3.82-1.6-1.03-1.23-1.29-2.97-.67-4.48h4.49c1.26-1.92,3.18-4.32,6.08-6.42,7.63-5.51,16.21-4.75,18.77-4.43.43-1.83.87-3.69,1.32-5.54-.65.01-4.76.08-7.61-3.11-1.52-1.72-2-3.61-2.18-4.55.55-.98,1.7-2.71,3.76-4.17,2.46-1.7,4.88-2.08,6.03-2.18.19-.9.81-3.28,2.97-5.27,2.75-2.56,6.01-2.65,6.8-2.65.15-1.22.6-3.59,2.25-6.02,1.6-2.39,3.57-3.68,4.62-4.3v-3.16c-1.87-.54-5.82-1.99-9.31-5.68-4.45-4.72-5.3-10.09-5.53-11.97.17-1.28.35-2.57.5-3.86h8.33v-2.78c-2.54-.39-4.41-2.61-4.4-5.19.04-2.57,1.96-4.75,4.5-5.11h5.05l-.5-2.87c-.6-.34-1.87-1.17-2.33-2.64-.42-1.29-.04-2.49.46-3.64,1.85-4.28,6.09-9.02,7.43-10.48,1.34,1.46,5.57,6.2,7.44,10.48.48,1.15.86,2.35.46,3.64-.48,1.47-1.75,2.3-2.35,2.64l-.5,2.87h5.05c2.56.36,4.48,2.54,4.5,5.11.01,2.58-1.86,4.8-4.4,5.19v2.78h8.33c.17,1.29.33,2.58.5,3.86-.21,1.88-1.08,7.25-5.51,11.97-3.51,3.69-7.46,5.14-9.33,5.68v3.16c1.07.62,3.02,1.91,4.62,4.3,1.65,2.43,2.1,4.8,2.25,6.02.79,0,4.07.09,6.82,2.65,2.14,1.99,2.78,4.37,2.97,5.27,1.13.1,3.57.48,6.01,2.18,2.07,1.46,3.21,3.19,3.76,4.17-.18.94-.64,2.83-2.18,4.55-2.85,3.19-6.96,3.12-7.59,3.11.43,1.85.87,3.71,1.32,5.54,2.54-.32,11.12-1.08,18.76,4.43,2.89,2.1,4.83,4.5,6.08,6.42h4.48c.62,1.51.36,3.25-.65,4.48-1.44,1.77-3.64,1.62-3.83,1.6,16.11,7.49,35.66,18.25,56.16,33.69,21.28,16.03,37.45,32.53,49.28,46.39h9.51l-.51,19.81h-4.25v26.43c2.15-.19,5.03-.13,8.11,1.03,9.9,3.7,12.51,15.21,12.77,16.41,2.03.38,7.59,1.68,12.4,6.57,4.32,4.42,5.66,9.34,6.11,11.41,2.2.18,5.12.73,8.22,2.18,7.85,3.62,11.47,10.4,12.66,12.87h-.16v32.26l.31.23,8.04,47.56,27.92,18.73c-.54,5.01-4.18,7.09-9.16,7.69l1.38,8.72c2.69,9.75,3.81,30.25.98,36.64-1.58,3.55-5.29,3.09-6.72,5.41-2.47,4.02.95,9.11,1.05,13.66.46,22.05,2.68,26.96,6.99,46.89,3.04,14.1,2.44,31.2,3.78,45.69l1.2,3.31c12.96-.36,25.94-.55,38.92-.1l.1,15.87c6.23,2.76,7.39,5.25,6.6,17.92l-1.6,6.46,1.03,18,.81,14.17Z" fill="#e6ce6e" stroke-width="0"/></g></g></g><g id="x"><circle id="y" cx="1362.68" cy="1545.32" r="116.52" fill="#fff" stroke-width="0"/><g id="z"><g id="aa"><path id="ab" d="m1402.36,1606.45c-1.48.24-3.35.92-3.55,2.71-.21,1.78,1.02,3.96,1.61,5.33.7,1.61,1.54,3.37,1.69,5.16.38,4.36-2.97,5.84-6.43,6.68-.53.13-1.3.41-1.69.34-.69-.13-.77-.87-1.27-1.35,1.72-.33,3.6-.88,3.81-2.71.12-1.04-.38-2.03-.76-2.96-1-2.44-2.87-5.05-2.79-8.38.1-4.46,4.04-5.99,8.29-6.18.4.37,1.05.91,1.1,1.35Z" fill-rule="evenodd" stroke-width="0"/><path id="ac" d="m1379.52,1619.31c.03,2.62.43,5.22.68,7.36-1.69-.31-4.55.4-6.26,0-.63-.15-.95-.78-1.44-.93.38-5.52.32-11.93.08-17.85-.02-.4-.14-.86-.08-1.1.13-.57.82-.79,1.18-1.27,6.17.36,13.23-.86,16.33,2.45,1.71,1.82,2.17,5.6.34,7.95-.57.73-1.55,1.39-2.54,1.86-2.24,1.07-5.16,1.3-8.29,1.52Zm5.75-6.52c.13-3.39-2.47-5.06-5.75-5.5-.31,3.22-.14,6.91-.25,10.32,3.15-.46,5.88-1.54,6.01-4.82Z" fill-rule="evenodd" stroke-width="0"/><g id="ad"><path d="m1355.49,1619.4c2.17-.36,3.85.6,4.4,2.11.39,1.05.01,2.61-.59,3.3-2.1,2.41-7.15,1.16-6.77-2.54.13-1.27,1.31-2.61,2.96-2.88Z" fill="#db2429" fill-rule="evenodd" stroke-width="0"/><path d="m1371.22,1623.8c-2.16,1.11-4.07,2.47-6.09,3.72-.41-.44-.83-1.05-1.18-1.61-2.42-3.8-4.88-7.81-7.45-11.59-.46.48-.94,1-1.35,1.52-2.92,3.66-5.66,7.77-8.46,11.68-.94-.73-1.42-1.9-2.2-2.79,3.21-4.54,6.47-9.05,9.73-13.54-.63-1.03-1.52-1.8-2.12-2.88,1.9-1.26,3.89-2.42,5.75-3.72.07-.02.08.03.08.08.07.02.08.09.17.08,2.19,3.23,4.14,6.57,6.35,9.73,2.19,3.14,4.71,6.06,6.77,9.31Z" fill-rule="evenodd" stroke-width="0"/></g><path d="m1324.52,1605.61c6.7.29,16.03-1.08,18.11,3.64,1.25,2.84-1.6,5.73-4.65,6.01,1.37.56,3.06.87,4.23,1.78,1.25.98,2.61,3.36,1.61,5.84-.92,2.26-4.76,3.53-7.87,3.72-3.73.23-7.79-.18-11.51,0-.28-.31-.62-.57-.93-.85.22-4.12.36-9.64.17-14.21-.03-.68-.14-1.48-.17-2.29-.03-.77-.21-1.71-.08-2.28.14-.64.76-.91,1.1-1.35Zm11.85,5.08c-.06-.33-.33-.91-.59-1.27-1.02-1.37-3.17-1.89-5.5-2.12-.03,2.75-.21,5.36-.08,8.04,3.44-.12,6.75-1.54,6.18-4.65Zm-1.78,13.45c1.72-.55,3.67-2.05,2.79-4.32-.83-2.15-4.17-2.79-6.94-3.05-.13,2.55-.15,5.43-.17,7.95,1.5-.13,3.02-.18,4.32-.59Z" fill-rule="evenodd" stroke-width="0"/></g><path id="ae" d="m1354.3,1463.12c.45.12.19.94.42,1.27,1.38-.55,3.42-.91,5.33-.76,4.23.32,7.58,3.56,11.59,3.89,1.73.14,2.73-.52,3.98-1.1-.11,1.31-.82,2.46-1.69,3.13-1.23.95-3.17,1.43-5.25,1.27.31.39,1.17.79,1.86.85,1.49.12,2.83-.72,3.81-1.18-.1.89-.47,1.32-1.02,1.86-1.54,1.52-3.87,2.57-7.28,2.28.19,1.09-.17,1.92-.85,2.37.27.36.7.88.42,1.52.67.37,1.79,1.61,1.86,2.62.09,1.31-1.01,2.14-2.12,2.62.34,1.04,1.44,1.33,2.03,2.12,1.52.27,3.69,1.37,2.62,3.13,7.44,2.92,12.67,7.37,19.04,11.34,1.11.69,2.12,1.3,3.47,1.61,1.33.3,2.75.54,4.4.59.36-.23.47-.71.76-1.02-1.41-2.3.82-4.33,1.52-6.09.54.28.81,1.03,1.27,1.69.57.82,1.59,1.84,1.35,3.13-.09.47-.6.83-.59,1.35.66-.07,1.34-.87,2.28-1.1.56-.14,1.22-.12,1.86.08v2.54c3.99.95,6.94,2.93,9.31,5.5.31-.26.4-.72.68-1.02-1.45-2.17.74-4.13,1.69-5.67.54.35.93,1.12,1.35,1.78.66,1.03,1.24,2.1.68,3.3.26.59.66,1.04,1.02,1.52.94-.13,2.07-.08,3.13-.08-.07,1.7-.11,3.45-.08,5.25-1.91.15-3.94.18-5.75.42.19.99.47,1.95.34,3.64-.07.84-.35,1.55-.68,2.45-.33.92-.05,1.31.25,2.37.7,2.46.04,5.16-1.61,7.11-.74-.12-1.29-.84-2.2-.51-.29,2.41-1.53,3.89-3.22,4.91-.03.23.24.59,0,.76-.15.5-.38.91-.85,1.1.21.86-.26,1.69-1.02,1.86-.15,1.18-1,2-2.28,1.78.09,2.94-1.17,4.53-2.96,5.58v4.99h-.76c-.3.98-.41,1.64-.68,2.62.07.38.43.49.51.85.22,1.04-.47,1.8-1.18,2.12.54,5.11.48,10.68,1.1,16.25.04.37-.16,1.06.51,1.1.44-.58.28-1.76.93-2.12-.25-.37-.37-1.08-.08-1.52-1.49-2.54,2.14-4.21,4.23-2.71.6.43,1.19,1.78.34,2.54.36.2.51,1.17.08,1.44,1.54.79.96,2.89,1.02,4.99.17,6.19,0,14.29.25,19.97,1.4.02,2.57.79,2.37,2.28-.04.32-.26.79-.51,1.01-.87.8-4.57.51-6.6.51-6.74,0-13.47.14-19.71.09-9.52-.08-20.8,0-31.22,0-10.58,0-21.94-.11-32.07.08-1.68.03-4.24.03-5.92-.08-.71-.05-.9-.22-1.52-.42-1.2-1.36-.28-3.58,1.86-3.3.06-6.14.13-14.43.08-20.73-.01-1.75-.25-3.44,1.02-4.23-.34-.4-.29-1.11.08-1.44-2-3.17,4.39-4.48,4.91-1.44.1.58,0,1.04-.25,1.44.16.5.29,1.25-.17,1.52.21.28.43.43.59.85.17.45-.05,1.36.68,1.27.37-.15.14-.59.17-.85.49-4.84.71-11.13,1.1-16.33-.28-.4-.88-.46-1.1-1.02-.28-.71-.02-1.43.42-1.95-.15-.89-.46-1.63-.59-2.54-.12-.27-.71-.08-.93-.25.17-1.25.04-3.13.08-4.74-.36-.53-1-.67-1.44-1.1-1.01-1.01-1.57-2.5-1.61-4.48-1.24-.09-2.08-.58-2.2-1.78-.59-.4-1.25-.72-1.1-1.86-.44-.5-1-.86-.85-1.95-1.12-.83-2.36-1.77-2.88-3.21-.21-.58-.11-1.23-.42-1.78-.94-.09-1.37.32-1.95.59-2.05-1.36-2.68-6.05-1.27-8.63-.81-1.67-1.33-4.67-.59-6.85-1.64-.38-4.12-.3-5.75-.42.06-1.87-.13-3.48-.08-5.33,1.11-.07,1.96.13,3.05.08.42-.4.67-.96,1.02-1.44-.81-2.25,1.08-3.62,1.78-5.16.54.46,1.59,1.69,2.03,2.54.42.81.7,2.27-.08,3.05.15.42.47.66.59,1.1,2.52-2.41,5.18-4.69,9.39-5.41v-2.71c1.67-.44,2.95.48,4.06,1.1.06-.67-.51-.92-.59-1.52-.05-.36.11-1.06.25-1.44.22-.56.79-1.11,1.18-1.69.42-.63.73-1.28,1.18-1.61.51,1.49,2.28,2.94,2.03,4.99-.05.4-.14.77-.51,1.01.22.43.56.74.76,1.19,1.59-.26,3-.29,4.32-.59,1.3-.3,2.36-.94,3.47-1.61,2.12-1.29,4.04-2.8,6.01-4.15,4.04-2.75,8.05-5.23,12.95-7.28-1.12-1.81,1.22-3.03,2.88-3.38-1.58-7.58-3.09-14.73-4.57-22.42.39,0,.57-.22,1.02-.17Zm2.71,1.95c1.08,1.64,1.75,4.81.68,6.94.71.27,1.81.17,2.54.42-.09-.68.25-.93.51-1.27-.97-2.15.97-3.87,1.78-5.33.88,1.45,2.65,3.02,1.86,5.33.56.57.51,2.15,1.44,2.2,1.45.08,3.78.07,4.91-.68-2.37-.23-3.9-1.29-4.23-3.55,2.07.57,5.38.87,6.68-.59-6.62.85-9.03-4.83-16.16-3.47Zm-1.61,2.28c.33,1.62.56,2.96.85,4.32,1.41-1.51.65-5.15-.85-6.01-.02-.07-.07-.1-.17-.08-.34.45.04,1.13.17,1.78Zm6.94.85c-.39.5-1.09,1.71-.51,2.37.23.26.61.14,1.1.17.93-.71.26-2.18-.59-2.54Zm-.76,3.47v.59c.48.31,1.87.38,1.95-.42-.24-.58-1.43-.3-1.95-.17Zm-1.27,3.38c.05,1.06,1.27,1.77,2.11,1.78.94,0,2.41-.88,2.29-2.12-.12-1.13-1.58-1.65-2.88-1.35-.93.21-1.57.77-1.52,1.69Zm-3.72-1.61c.56,2.12.78,4.58,1.44,6.6.29-.64.71-1.15,1.35-1.44-.27-.71.17-1.18.42-1.61-1.04-.36-1.12-2.74-.34-3.47-.74-.2-2.04-.26-2.88-.09Zm5.42,4.23c-.6.01-1.32-.1-1.27.42.61.51,3.18.62,3.55-.17-.35-.48-1.43-.28-2.28-.25Zm-3.05,3.55c.05,1.1,1.49,1.56,2.62,1.69,1.58.18,4.53-.19,4.48-1.86-.05-1.68-2.88-1.8-4.57-1.61-1.18.13-2.6.47-2.54,1.78Zm0,3.38c.44-.04.46-.5.68-.76-.33-.12-.48-.42-.93-.42.05.53.04.73.25,1.18Zm4.99-.68c-1.02.18-1.83.07-2.96.08-.21.58-.68.9-.93,1.44,1.49-.26,3.76.1,4.99-.17-.52-.3-.74-.9-1.1-1.35Zm-6.01,4.4c2.72-.54,6.19-.52,8.97,0,.88.16,1.86.48,2.03-.08.21-.69-1.3-1.05-2.03-1.27-2.7-.82-6.49-.68-8.97.08-.75.23-1.87.32-1.86,1.18.44.63,1.24.21,1.86.08Zm26.91,10.75c-.96-.65-1.93-1.33-2.88-2.03-2.86-2.11-6.05-3.96-9.31-5.5-3.31-1.57-7.68-2.92-12.78-2.28-4.72.59-8.67,2.68-12.27,4.91-1.8,1.12-3.48,2.32-5.16,3.47-1.5,1.03-3.09,2.04-4.48,3.05-.15.11-.67.34-.34.42,4.08-.77,7.88-2.09,11.85-3.22,4.05-1.15,8.3-1.89,13.28-1.86,4.94.03,9.2.8,13.2,1.86,3.96,1.05,7.64,2.55,11.68,3.13-.82-.78-1.85-1.3-2.79-1.95Zm17.6,3.22c-.45.37-.64.99-1.1,1.35-3.84.33-7.44.07-10.75-.59-3.27-.66-6.37-1.48-9.48-2.37-4.58-1.31-9.12-2.74-14.47-3.3-16.74-1.75-26.86,7.7-42.81,6.43-.64-.99-1.29-1.99-2.88-2.03.06,1.34.14,3.12.17,4.74,8.96,1.41,17.63-.15,25.13-2.28,5.96-1.7,12.17-2.86,19.46-2.37,3.44.23,6.59.73,9.65,1.44,4.47,1.04,8.95,2.48,13.54,3.05,5.12.63,9.99,1.07,15.23,0,.16-1.39.07-3.74.09-4.74-.75.11-1.32.3-1.78.68Zm-3.98-2.03c.31,1.09,1.92.62,2.03-.34.11-.91-.8-1.9-1.1-2.45-.19.68-1.22,1.77-.93,2.79Zm-73.7-.09c.1.55.67.96,1.27.85,1.42-.26.38-2.84-.34-3.39-.2.67-1.11,1.57-.93,2.54Zm73.78,2.54c.64-.03,1.84.28,2.03-.42-.42-.61-2.43-.58-2.03.42Zm-73.95-.17c.34.4,1.6.48,2.12.17.13-1.04-1.92-.91-2.12-.17Zm62.02,4.65c-1.64-.29-3.25-.76-4.91-1.18-.82-.21-1.69-.27-2.54-.51-5.46-1.5-11.68-2.92-18.87-2.54-3.52.18-6.56.65-9.56,1.35-2.95.69-5.85,1.43-8.97,2.2-6.04,1.5-12.83,2.12-20.22,1.35.11.63.66,1.04,1.02,1.61,1.5,2.4,2.61,6.23,1.95,9.81-4.23-2.35-9.68-3.9-15.15-4.74-1.14,1.91-.28,5.2.68,6.77-1.14,1.84-1.38,5.35.08,7.02.73-.51,2.32-.53,3.05,0-.15,1.31.08,2.46.68,3.3.64.9,1.82,1.3,2.62,1.95-.18.41-.36.69-.25,1.1.14.53.86.56,1.18.85-.07.32-.23.56-.17,1.02.24.35.59.59,1.1.68-.31.45-.14.88.08,1.1.59.58,1.73-.05,2.2-.08-.65,2.14.08,4.45,1.44,5.58.39.33.93.37,1.27.76.07,1.26-.05,3.05,0,4.57.16.3.68-.19.68.17.33,1.28.58,2.63.93,3.89-.27.45-.61.5-.51,1.02.1.53.77.41,1.1.76-.38,6.53-.73,13.09-1.27,19.46-2.3.01-4.42-.15-6.77-.08-.03,6.94-.21,14.31,0,21.58,17.51,0,36.33,0,53.05,0,12.59,0,25.84-.08,37.65-.17-.11-7.15-.05-14.59-.17-21.49-2.32-.12-4.65.2-6.77,0-.57-5.8-.96-12.95-1.35-19.46.53-.19,1.04-.25,1.1-.76.06-.53-.38-.51-.51-1.02.33-1.44.65-2.52.93-3.89.15-.21.7.25.68-.25-.02-1.57-.13-2.81-.08-4.57,2.33-.61,3.49-3.44,2.71-6.35.81.64,2.93.76,2.37-.93.53,0,.76-.31,1.02-.59.05-.47-.04-.8-.17-1.1,1.11-.2,1.57-1.13.93-2.03,1.96-.84,3.75-2.28,3.3-5.25.83-.37,2.4-.35,3.13.08.32-.76.82-1.58.93-2.62.18-1.69-.45-3.28-.93-4.48,1.01-1.43,1.68-4.78.68-6.68-4.88.72-9.75,2.08-13.62,3.98-.61.3-1.14.73-1.69.76-.37-4.71.7-7.9,2.54-10.58.17-.24.75-.57.42-.76-6.31.55-11.72.36-17.01-.59Zm29.53-.93c.25,1,1.86.82,1.95-.25.06-.77-.66-1.38-1.01-1.95-.37.77-1.18,1.2-.93,2.2Zm-108.98,0c.13.98,1.68,1.14,1.95.25.32-1.07-.6-1.57-1.02-2.28-.23.73-1.05,1.17-.93,2.03Zm98.23,1.44c-.98,1.22-1.96,2.44-2.54,4.06,1.52-.36,3.07-1.09,4.82-1.52,1.76-.43,3.65-.74,5.5-1.1-1.61-2.17-4.32-3.97-7.78-4.57.03,1.2-.07,2.32,0,3.13Zm-93.32,1.61c3.74.57,7.17,1.46,10.32,2.62-.45-1.21-1.05-2.29-1.78-3.21-.27-.34-.67-.59-.76-.93-.24-.88.17-1.83,0-3.05-3.57.55-5.93,2.31-7.78,4.57Zm104.07-.59c.9.02,1.66-.09,2.45-.17-.05-.92-2.44-.72-2.45.17Zm-109.48.08c1.03-.05,1.64.23,2.45.09.02-.36-.32-.36-.34-.68-.99.1-2.02-.38-2.12.59Zm95.61,4.48c-.08.4-.19.77-.25,1.18,1.25-.29,2.36-.91,3.64-1.35,3.91-1.36,8.23-2.13,13.03-2.45.48-.45,1.18-.69,1.69-1.1,0-.05-.01-.1-.08-.08-6.79.49-12.99,1.56-18.02,3.81Zm-95.69-2.45c.67.2,1.59.09,2.37.17,5.39.55,9.84,1.8,14.3,3.64.05-.55-.2-.82-.25-1.27-5.09-2.08-11.33-3.45-18.11-3.55.7.18,1.12.85,1.69,1.02Zm115.41-.93c-.78.25-1.99,1.39-2.62,1.61-.69.24-1.59.16-2.45.25-5.38.59-11,2.08-15.06,4.15,0,.43-.14.7-.08,1.18.38.08.7-.19,1.02-.34.33-.16.74-.27,1.1-.42,5.19-2.13,11.2-3.34,18.11-3.64-.07-.94.1-2.1,0-2.79Zm-118.71,2.96c7.83.37,14.56,1.85,20.22,4.4v-1.19c-4-2.21-9.88-3.47-15.31-4.06-.81-.09-1.67-.12-2.28-.34-.95-.34-1.73-1.29-2.62-1.61v2.79Zm101.02,55.59c.18.3.38.58.59.85-.1.26-.39.34-.34.76.08.37.47.43.59.76-.22.28-.56.46-.68.85h3.13c-.06-.56-.64-.6-.76-1.1.13-.15.23-.33.34-.51-.02-.35-.29-.45-.34-.76,1.92-1.63-2.26-2.99-2.54-.85Zm-86.13.42c.13.24.35.38.51.59-.11.26-.34.45-.34.59.02.38.31.48.42.76-.4.2-.69.49-.85.93h3.05c0-.54-.59-.48-.68-.93.28-.2.63-.33.68-.76-.03-.34-.35-.38-.34-.76,1.98-1.6-2.74-2.94-2.45-.42Zm88.16,3.72h-2.28c.03.2-.15.18-.08.42,1.05.09,2.19.19,3.21.17.31,0,.79.15.93-.17,0-.69-1.09-.42-1.78-.42Zm-86.56.08h-2.2c-.08,0-.1.07-.17.08v.51c.9.06,1.85-.05,2.71-.08.53-.02,1.2.16,1.44-.17-.23-.56-1.11-.34-1.78-.34Zm59.65,24.45c-18.94,0-37.66,0-56.94,0h-4.06c-.74,0-3.58-.37-3.47.68.07.69,1.77.59,2.45.59,30.78,0,60.93-.05,90.87-.08.7,0,2.51.12,2.28-.85-.16-.68-2.95-.42-3.55-.42-6.83,0-13.45-.08-19.46.09-2.59.07-5.77-.08-7.95,0-.06,0-.11,0-.17,0Z" fill-rule="evenodd" stroke-width="0"/><path id="af" d="m1351.93,1581.58c-.54.02-1.09-.65-1.52-1.01-.9-.37-2.27-1.28-3.64-.93-.89.22-1.23,1.15-1.18,2.37,19.12.2,38.61.03,57.87.08.55.44.87,1.11,1.18,1.78h-2.28c-.2,2.71-.03,5.78-.08,8.63-.62-.09-1.35-.79-1.95-1.18v-7.45h-2.28c-.2,1.61-.03,3.58-.08,5.33-.36.84-1.29,1.49-2.54,1.35-1.1-.12-2.96-1.54-3.3-2.62-.38-1.23.11-2.62-.08-4.06h-2.2v8.71c-.71-.36-1.3-.84-1.95-1.27v-1.52c-.64.2-1.47.69-2.37.68-2.17-.04-3.44-2.32-3.72-4.4.92-.24,1.88-.43,2.45-1.01.07-.58-.23-.79-.34-1.19h-4.23c-.15,2.6-.13,6.22,0,8.55-.24.26-.73-.21-1.02-.42-.35-.26-.74-.57-.93-.85v-7.28h-2.88c-.37,1.18.2,2.76-.08,3.89-.18.7-.81.97-1.18,1.35.74,1.01,1.64,1.86,2.45,2.79-.18.39-.46.67-.85.85-.98-1.59-2.46-3.01-3.64-4.57-.36-.47-.87-1.16-.34-1.86.71-.26,1.13.27,1.69.42.37-.62.08-1.9.17-2.79-1.22-.19-2.79-.03-4.15-.08-.14,2.68-.14,5.94,0,8.63-.63-.11-1.37-.82-1.95-1.27.06-2.4-.11-5.02.08-7.28-.35-.15-1.67-.04-2.11-.08-.2,2.74-.03,5.84-.08,8.71-.74-.36-1.37-.83-1.95-1.35v-3.81c-.62-.2-1.61-.03-2.37-.09-.24.36.13,1.31-.34,1.44-.83.25-1.33-.53-1.61-1.1-.43-.41-.94-1.11-.76-1.86.55-.43,1.47-.25,2.37-.25h2.62c.2-.4.03-1.16.08-1.69h-6.77v8.71c-.75-.33-1.35-.8-1.95-1.27v-2.2c-1.05-.17-1.91.06-2.88-.08-.09.23.16,1.13-.25,1.27-.78.27-1.44-.46-1.86-.93-.42-.46-1.01-1.18-.85-1.86.13-.27.51-.28.93-.25v-3.38h-3.05c-.2,2.74-.03,5.84-.08,8.71-.74-.36-1.37-.83-1.95-1.35-.01-2.53,0-4.73,0-7.36h-2.37c-.2,2.74-.03,5.84-.08,8.71-.75-.35-1.36-.84-1.95-1.35v-7.28c-.54-.2-1.44-.03-2.11-.08v8.63c-.65-.09-1.37-.82-1.95-1.27v-1.35c-.5.09-1.05.66-1.78.85-1.64.42-3.27-.73-3.89-1.86-1.12.54-2.64.16-3.21-.59-.4.41-.79.85-1.27,1.19.67,1.19,1.77,1.95,2.54,3.04-.37.14-.43.58-.85.68-.45-.39-.81-1.02-1.27-1.61-.81-1.03-1.69-1.9-2.45-3.3-.32-.59-.75-1.71.08-1.95.69-.2.8.33,1.27.51.2-.79.03-1.95.08-2.88-.93-.34-1.85.18-2.62-.08-.74-.25-.78-1.29-1.27-1.78h23.18c-.2-.78-.63-1.95-.25-2.88.36-.89,1.63-1.43,3.13-1.27,1.47.16,3.27,1.43,4.31,2.37.47.42.87.71.42,1.27Zm-24.96,2.29v3.3c.76.25,1.75.16,2.54,0,.16-1.91,2.9-3.07,4.74-2.28.22.09.62.47.85.68.21.2.54.82.68.51v-2.2h-8.8Zm24.28,0v3.47h2.96v-3.47h-2.96Zm34.69,2.62c-.29.91-2.23.59-2.37,1.35-.1.53.27.71.76.85,1.42.39,2.74-.92,3.55-1.27v-3.55h-2.71c.08.96,1.07,1.67.76,2.62Zm8.04-2.62c.13,1.59-.29,3.73.25,4.91,2.66.74,1.67-3.16,1.86-4.91h-2.11Zm-62.19,3.13c-.44.49-.64,1.52,0,2.2.83.2,1.66-.23,2.37-.59.66-.34,1.31-.68,1.69-1.1-.94-.76-3.03-1.66-4.06-.51Z" fill="#db2429" fill-rule="evenodd" stroke-width="0"/><g id="ag"><path d="m1342.96,1512.79c.88.05,1.97-.11,2.71.08,0,14.18.51,27.61.51,41.46,0,1.97-.15,4,.08,5.84.52,4.09,3,7.68,5.5,9.9,1.32,1.18,2.85,2.24,4.74,2.96,1.86.72,4.1,1.3,6.43,1.27,3.04-.03,5.92-.92,7.95-2.03,4.2-2.29,7.42-6.08,8.46-11.51.54-2.78.34-5.98.34-9.64,0-12.46.24-25.24.25-38.24.81-.1,2.08-.17,2.88,0,0,12.96,0,28.11,0,41.97,0,3.57-.16,6.5-1.1,9.22-.85,2.47-2.23,4.84-3.98,6.68-3.42,3.62-8,6.26-14.72,6.52-3.35.13-6.28-.82-8.71-1.95-3.67-1.7-6.5-4.16-8.38-7.61-.64-1.18-1.34-2.31-1.78-3.55-.47-1.34-.76-2.82-.93-4.4-.18-1.62-.08-3.39-.08-5.25,0-14.08-.34-27.9-.25-41.46,0-.12-.01-.24.08-.25Z" fill="#f99d1e" fill-rule="evenodd" stroke-width="0"/><path d="m1361.16,1527.85c6.9-.7,11.65,3.01,13.96,7.28.96,1.77,1.42,3.44,1.61,5.41.42,4.37-1.13,8-3.3,10.49-3.14,3.59-8.88,6.45-15.4,4.23-1.72-.58-3.19-1.58-4.4-2.62-2.59-2.23-4.51-4.92-4.99-9.14-.49-4.35,1.22-8.37,3.22-10.74,1.95-2.32,5.27-4.5,9.31-4.91Z" fill="#db2429" fill-rule="evenodd" stroke-width="0"/></g></g></g><g id="ah"><g id="ai"><path d="m924.88,1462.34s-389.64-20.95-505.58-26.45c-8.32-1.47-16.82-5.22-21.25-12.15-18.53-24.16-104.8-133.64-141.03-180.21-15.44-17.32-27.92-36.68-14.75-59.48,38.35-38.53,125.32-117.02,151.09-142.21,16.58-15.83,46.62-10.78,67.24-10.8,117.67,22.31,396.96,75.27,460.9,87.39l6.13,1.2.31-8.47c1.21-39.99,2.18-80.13,3.7-119.89-.24-17.98,1.96-37.97,19.78-47.58,35.13-22.72,81.18-27.44,120.11-12.17,24.11,9.25,44.45,22.21,43.38,47.87.02.02.07,40.62.07,40.62,105.78-19.68,395.82-74.62,461.66-86.79,15.23-.1,37.17-1.45,52.69,3.35,29.18,16.68,58.61,54.78,106.2,95.71,15.75,14.94,28.12,26.18,40.75,38.14,11.46,10.04,22.97,20.03,21.69,36.42.77,20.1-16.34,32.61-26.94,48.05-44.82,52.54-114.68,155.44-145.6,180.69-111.42,11.91-358.2,18.6-496.5,28.21l-6.1.12-.11,3.39c-.65,33.46-.8,34.35-.97,67.86" fill="#fffffd" stroke-width="0"/></g><g id="aj"><g clip-path="url(#ak)"><g id="al"><path d="m1797.96,1106.86c.77,20.1-16.34,32.61-26.94,48.05-44.82,52.54-114.68,155.44-145.6,180.69-111.42,11.91-358.2,18.6-496.5,28.21l-6.1.12-.11,3.39c-.65,33.46-.8,34.35-.97,67.86-.27,45.92-1.01,215.38-1.84,261.34-.5,8.03-2.09,16.6-7.53,22.35-11.52,10.34-37.37,12.07-53.66,13.84-19.84,2.71-50.43,2.69-70.28,0-15.65-1.55-39.79-3.54-51.8-12.04-5.34-3.44-8.07-13.78-9.44-26.94-1.05-47.25-2.3-231.38-2.3-231.38,0,0-389.64-20.95-505.58-26.45-8.32-1.47-16.82-5.22-21.25-12.15-18.53-24.16-104.8-133.64-141.03-180.21-15.44-17.32-27.92-36.68-14.75-59.48,38.35-38.53,125.32-117.02,151.09-142.21,16.58-15.83,46.62-10.78,67.24-10.8,117.67,22.31,396.96,75.27,460.9,87.39l6.13,1.2.31-8.47c1.21-39.99,2.18-80.13,3.7-119.89-.24-17.98,1.96-37.97,19.78-47.58,35.13-22.72,81.18-27.44,120.11-12.17,24.11,9.25,44.45,22.21,43.38,47.87.02.02.07,40.62.07,40.62,105.78-19.68,395.82-74.62,461.66-86.79,15.23-.1,37.17-1.45,52.69,3.35,29.18,16.68,58.61,54.78,106.2,95.71,15.75,14.94,28.12,26.18,40.75,38.14,11.46,10.04,22.97,20.03,21.69,36.42Z" fill="#fffffd" stroke-width="0"/><path d="m1023.55,942.69c9.88.32,24.35,1.95,40.56,8.16,12.77,4.89,22.65,11.1,29.63,16.28,2.23,57.62,3.99,115.92,5.25,174.88,3.19,148.98,3.02,423.1,0,564.05-17.05,3.17-31.5,4.98-42.36,6.07-11,1.1-20.37,2.01-33.08,2.01s-22.08-.91-33.08-2.01c-10.85-1.09-25.31-2.89-42.36-6.07-3.02-140.95-3.19-415.07,0-564.05,1.26-58.96,3.02-117.26,5.25-174.88,6.98-5.18,16.86-11.39,29.63-16.28,16.21-6.21,30.68-7.84,40.56-8.16Z" fill="#b98252" stroke-width="0"/></g></g></g><g id="am"><g id="an"><polygon points="1063.07 1051.78 1065.15 1346.34 1570.09 1319.5 1730.35 1107.59 1580.73 953.58 1063.07 1051.78" fill="#d6a265" stroke-width="0"/><polyline points="1585.77 1319.98 1615.84 1318.41 1776.98 1112.4 1744.07 1112.4" fill="#b98252" stroke-width="0"/><polyline points="1743.95 1100.92 1777.27 1100.92 1621.37 954.91 1597.51 953.58" fill="#b98252" stroke-width="0"/></g><g id="ao"><path d="m1117.9,1145.67c3.06-6.54,6.99-11.69,11.78-15.44,4.82-3.76,10.61-5.89,17.37-6.35,4.25-.31,8.33.66,12.22,2.91,3.9,2.25,7.25,5.28,10.04,9.1,2.79,3.82,4.85,8.17,6.19,13.04,1.34,4.87,1.6,9.82.78,14.84-.4,1.99-.96,3.74-1.67,5.26-.71,1.51-1.86,2.71-3.46,3.59-1.07.7-2.19,1.02-3.34.94-1.16-.08-2.23-.45-3.21-1.11-.98-.66-1.84-1.54-2.58-2.63-.74-1.09-1.24-2.41-1.51-3.96-.44-1.98-.96-3.92-1.56-5.83-.6-1.9-1.46-3.69-2.57-5.36-1.35-1.97-2.68-3.24-4.01-3.8-1.32-.55-2.87-.42-4.63.39-3.11,1.34-5.35,3.97-6.72,7.89-1.2,2.87-2.08,5.96-2.64,9.29-.57,3.32-.85,6.71-.86,10.16,0,3.45.27,6.85.83,10.22.56,3.36,1.37,6.52,2.43,9.48,1.94,5.39,3.86,9.31,5.76,11.79,1.9,2.48,3.76,3.86,5.59,4.15,1.83.29,3.58-.25,5.25-1.64,1.68-1.39,3.25-3.3,4.71-5.73,1.47-2.43,2.77-5.16,3.92-8.18,1.15-3.03,2.11-5.99,2.89-8.88,1.04-1.36,2.22-2.43,3.55-3.2,1.33-.78,2.89-1.05,4.67-.82,2.98.2,5.51,1.53,7.59,3.99,2.08,2.46,3.25,5.59,3.52,9.38.08,1.56.08,3.19,0,4.88-.08,1.69-.36,3.34-.82,4.95-2.41,10.6-7.33,19.38-14.69,26.36-5.81,5.68-12.14,8.3-19,7.92-6.82-.38-13.64-3.62-20.48-9.72-5.97-5.2-10.68-11.49-14.15-18.88-3.48-7.4-5.83-15.11-7.06-23.14-1.23-8.06-1.33-16.07-.28-24.06,1.05-8.03,3.1-15.3,6.14-21.8Z" fill="#2a346b" stroke-width="0"/><path d="m1226.61,1218.12c-.03,1.58,0,3.1.09,4.56.09,1.45.12,2.91.07,4.38-.32,3.29-1.36,5.88-3.13,7.78-1.76,1.9-4.06,3.03-6.89,3.41-2.75.26-5.35-.25-7.79-1.51-2.43-1.26-4.37-3.43-5.81-6.51-1.93-3.81-3.22-7.68-3.88-11.62-1.18-7.59-2.39-15.7-3.65-24.35-1.26-8.68-2.46-16.95-3.58-24.81-.79-6.43-1.19-12.62-1.19-18.56,0-5.96.68-11.52,2.05-16.68,1.38-5.18,3.61-9.85,6.71-14.03,3.11-4.2,7.35-7.73,12.71-10.59,3.13-1.8,6.33-2.75,9.6-2.84,3.28-.09,6.32.58,9.12,2.01,2.8,1.44,5.26,3.56,7.39,6.36,2.13,2.81,3.64,6.18,4.55,10.13.66,3.02,1,5.86,1.02,8.55.02,2.68-.3,5.43-.95,8.25-1.3,5.63-3.19,10.69-5.67,15.19-2.47,4.48-5.67,8.43-9.58,11.83-1.52,1.35-3.14,2.57-4.84,3.65-1.7,1.08-3.41,2.19-5.14,3.32.09.57.19,1.76.29,3.59.1,1.83.29,3.3.57,4.41,2.6-2.84,5.7-5.32,9.31-7.43,3.62-2.12,7.33-3.51,11.12-4.16,3.8-.65,7.48-.34,11.02.92,3.54,1.26,6.57,3.91,9.06,7.93,1.44,2.28,2.63,4.62,3.59,7.02.96,2.4,1.88,4.88,2.77,7.45,1.34,4.26,2.36,8.55,3.07,12.87.7,4.31.89,8.66.58,13.06-.15,1.62-.49,3.26-1.02,4.91-.76,2.13-1.91,3.84-3.48,5.12-1.56,1.28-3.26,2.07-5.12,2.36-1.85.29-3.77.1-5.76-.56-1.99-.66-3.75-1.88-5.28-3.65-.95-1.15-1.79-2.34-2.51-3.58-.72-1.23-1.37-2.44-1.94-3.63-.51-1.42-.91-3.03-1.19-4.82s-.55-3.61-.79-5.47c-.24-1.86-.49-3.68-.72-5.49-.24-1.8-.57-3.48-1.01-5.04-1.53-4.76-2.96-8.04-4.31-9.85-1.35-1.8-2.57-2.52-3.67-2.16-1.1.36-2.06,1.56-2.89,3.6-.82,2.04-1.49,4.46-2,7.26-.51,2.79-.84,5.76-1,8.89-.16,3.13-.13,5.99.1,8.56Zm-12.7-58.26c.58-.54,1.07-.93,1.47-1.15.4-.23.76-.48,1.1-.76,5.55-5.05,9.04-11.45,10.44-19.18.37-3.84.31-6.97-.17-9.39-.48-2.42-1.29-3.97-2.42-4.64-1.13-.66-2.53-.4-4.2.8-1.66,1.19-3.38,3.52-5.15,6.96-1.86,4.04-2.71,8.48-2.56,13.31.16,4.83.65,9.51,1.48,14.05Z" fill="#2a346b" stroke-width="0"/><path d="m1273.35,1187.16c-.73-5.54-1.08-11.03-1.04-16.46.04-5.44.51-10.91,1.41-16.38.29-1.47.5-2.93.64-4.38.14-1.45.31-2.85.52-4.2.99-6.38,2.85-11.91,5.59-16.6,2.75-4.7,6.74-8.36,11.96-10.95,5.07-2.46,10.16-3.08,15.28-1.86,5.13,1.23,9.74,4.27,13.81,9.13,2.78,3.19,5.06,6.67,6.86,10.42,1.79,3.76,3.29,7.7,4.49,11.83,3.41,11.78,4.67,23.23,3.79,34.32-.87,11.02-3.74,21.63-8.58,31.83-1.59,3.46-3.59,6.53-6,9.22-2.4,2.68-5.28,4.77-8.64,6.24-9.29,3.88-17.73,1.55-25.39-6.95-3.41-3.47-6.07-7.4-7.96-11.77-1.9-4.38-3.47-9-4.69-13.88-.44-1.58-.78-3.18-1.02-4.79s-.58-3.21-1.02-4.8Zm41.76,6.26c1.01-5.34,1.62-11.16,1.82-17.47.21-6.33-.02-12.26-.69-17.8-.67-5.55-1.75-10.24-3.22-14.06-1.48-3.82-3.33-5.77-5.53-5.84-2.14.41-3.87,2.71-5.2,6.9-1.33,4.17-2.32,9.16-2.99,14.95-.66,5.78-.96,11.79-.87,18.03.08,6.22.55,11.64,1.43,16.26.85,5.2,1.96,8.78,3.31,10.75,1.35,1.97,2.76,2.73,4.23,2.28,1.47-.44,2.9-1.92,4.29-4.42,1.39-2.51,2.54-5.7,3.43-9.59Z" fill="#2a346b" stroke-width="0"/><path d="m1345.57,1163.54c.05-1.22.08-2.42.08-3.58,0-1.16.15-2.31.43-3.45.39-3.48,1.62-6.19,3.69-8.12,2.07-1.93,4.43-2.76,7.07-2.48,2.83,0,5.22,1.03,7.18,3.07,1.96,2.04,3.16,4.83,3.62,8.36.92,5.44,1.66,10.82,2.24,16.15.58,5.32,1.15,10.62,1.72,15.91.48,3.71.89,7.36,1.25,10.96.35,3.59.76,7.16,1.22,10.72.81,6.28-1.01,10.53-5.44,12.73-2.02.9-4.19,1.05-6.51.43-2.31-.61-4.35-1.96-6.11-4.05-1.94-3.38-3.6-7.5-4.99-12.37-1.4-4.87-2.52-9.9-3.37-15.09-.86-5.2-1.45-10.38-1.76-15.55-.32-5.18-.42-9.72-.3-13.64Zm9.12-31.5c-2.73.74-5.29.31-7.67-1.29-2.38-1.6-3.98-3.89-4.81-6.89-.43-1.56-.55-3.13-.38-4.71.17-1.58.57-3.08,1.19-4.48s1.47-2.66,2.52-3.75c1.05-1.1,2.31-1.87,3.78-2.34,2.64-.76,5.22-.32,7.74,1.33,2.52,1.65,4.14,3.94,4.85,6.86.85,3.15.53,6.24-.95,9.27-1.48,3.02-3.57,5.02-6.27,6.01Z" fill="#2a346b" stroke-width="0"/><path d="m1375.73,1168c-.77-8.67-.06-17.09,2.17-25.29,2.23-8.24,6.52-15.65,12.9-22.22,10.63-10.42,22.24-11.56,34.76-3.27,2.63,1.7,5.07,4.2,7.31,7.5,2.37,3.42,3.98,6.89,4.85,10.44.86,3.54.62,6.99-.74,10.35-.74,1.62-1.73,3.11-2.97,4.47-1.23,1.36-2.65,2.32-4.25,2.9-1.6.58-3.35.6-5.25.07-1.9-.53-3.89-1.92-5.98-4.19-1.19-1.37-2.36-2.58-3.51-3.64-1.15-1.06-2.25-1.64-3.28-1.77-2.26.16-3.98.95-5.17,2.36-1.19,1.41-2.16,3.23-2.9,5.46-1.47,4.57-2.08,9.11-1.81,13.63.27,4.51,1.51,8.99,3.73,13.45,1.76,3.4,3.55,5.49,5.38,6.27,1.84.79,4.11.29,6.83-1.49,1.17-.62,2.34-1.44,3.53-2.44,1.18-1,2.28-2.06,3.29-3.17,1.11-1.25,2.3-2.29,3.57-3.12,1.28-.83,2.71-1.28,4.31-1.33,3.58.22,6.5,1.78,8.72,4.67,2.23,2.89,3.25,6.54,3.05,10.94-.06,1.51-.27,2.96-.63,4.37-.36,1.41-.81,2.7-1.37,3.88-2.77,5.86-6.18,10.62-10.24,14.28-4.04,3.64-8.88,5.78-14.51,6.44-6.37.73-12.11-.43-17.23-3.45-5.11-3.02-9.74-7.59-13.9-13.72-2.95-4.31-5.25-9.06-6.89-14.25-1.64-5.2-2.91-11.24-3.78-18.15Z" fill="#2a346b" stroke-width="0"/><path d="m1483.77,1164.48c.59,4.55,1.81,8.23,3.66,11.03,1.84,2.8,3.94,4.56,6.29,5.26,2.35.71,4.85.34,7.48-1.09,2.64-1.44,5.04-4.08,7.22-7.93,2.38-4.27,6.01-6.62,10.88-7.04,3.56-.14,6.58,1.05,9.05,3.58,2.47,2.53,3.63,5.69,3.49,9.47-.08,1.83-.38,3.57-.9,5.25-.52,1.67-1.08,3.31-1.66,4.92-3.33,6.39-7.41,11.73-12.22,16.02-4.79,4.27-10.51,7.34-17.16,9.23-5.57,1.52-10.73,1.56-15.49.13s-9.37-3.99-13.86-7.69c-3.23-2.81-6.03-6.04-8.41-9.68-2.38-3.64-4.4-7.48-6.07-11.51-1.67-4.04-3.06-8.17-4.17-12.4-1.11-4.24-1.95-8.36-2.51-12.36-1.2-7.62-1.58-15.28-1.15-22.97.44-7.72,1.99-14.79,4.66-21.19,2.68-6.44,6.66-11.91,11.93-16.41,5.31-4.53,12.23-7.36,20.79-8.47,4.11-.6,8.16-.45,12.14.44,3.99.9,7.65,2.42,10.97,4.56,3.32,2.15,6.21,4.93,8.67,8.34,2.45,3.41,4.27,7.38,5.45,11.9,1.94,7.34,2.23,14.38.87,21.1-1.36,6.69-3.81,12.44-7.36,17.24-3.53,4.78-7.91,8.24-13.12,10.38-5.18,2.14-10.69,2.31-16.52.53-.37-.08-.71-.18-1.02-.27-.31-.09-.59-.19-.84-.29-.12.01-.48,0-1.08-.07Zm-.88-25.87c1.76,3.03,3.57,5.05,5.42,6.06,1.85,1.01,3.52,1.29,4.99.85,1.47-.44,2.73-1.51,3.78-3.2,1.05-1.7,1.73-3.71,2.05-6.04.32-2.33.12-4.87-.58-7.6-.7-2.74-2.04-5.43-4.02-8.07-2.89-3.18-5.36-4.36-7.41-3.56-2.05.8-3.57,2.52-4.57,5.14-1,2.62-1.48,5.6-1.43,8.92.04,3.32.63,5.82,1.77,7.49Z" fill="#2a346b" stroke-width="0"/><path d="m1572.38,1157.14c-3.99-1.67-7.83-3.46-11.5-5.36-3.67-1.9-7.04-4.12-10.13-6.68-3.08-2.55-5.79-5.55-8.12-8.99-2.33-3.43-4.22-7.46-5.65-12.09-1.24-3.85-1.88-7.75-1.93-11.7-.05-3.96.45-7.83,1.5-11.62,1.05-3.8,2.58-7.37,4.57-10.71,2-3.35,4.5-6.27,7.5-8.76,4.37-3.24,9.09-6,14.17-8.27,5.11-2.28,10.22-3.67,15.32-4.15,5.13-.48,10.09.07,14.89,1.66,4.81,1.6,9.01,4.66,12.58,9.18,3.14,4.16,4.63,8.77,4.48,13.8-.16,5.02-1.99,9.15-5.49,12.37-2.23,2.23-4.39,3.54-6.48,3.95-2.09.41-4.17.45-6.25.1-2.07-.34-4.19-.78-6.33-1.32-2.15-.54-4.4-.78-6.75-.74-3.39.18-5.88,1.16-7.49,2.94-1.6,1.78-2.37,3.88-2.29,6.31.08,2.43,1,4.88,2.76,7.36,1.76,2.48,4.4,4.51,7.91,6.1,3.39,1.61,6.46,3.23,9.21,4.85,2.75,1.63,5.32,3.45,7.72,5.46,6.5,5.73,10.88,11.51,13.11,17.32,2.23,5.81,2.85,11.35,1.87,16.61-.98,5.24-3.3,10.01-6.96,14.28-3.64,4.26-8.13,7.76-13.46,10.5-5.3,2.73-11.13,4.55-17.47,5.47-6.31.91-12.67.57-19.08-1.02-.64-.2-1.28-.33-1.91-.4-.63-.07-1.28-.33-1.94-.78-2.21-.95-3.98-2.29-5.32-4.04-1.34-1.74-2.13-3.89-2.36-6.45-.27-2.95.15-5.49,1.27-7.62,1.12-2.13,2.75-3.83,4.89-5.1,1.21-.52,2.98-1.03,5.33-1.54,2.35-.51,4.84-.97,7.46-1.38,2.63-.41,5.17-.84,7.61-1.3,2.45-.46,4.23-.94,5.34-1.46,2.96-1.37,4.76-2.95,5.38-4.75.62-1.79.55-3.48-.23-5.05-.78-1.57-1.96-3.01-3.55-4.29-1.59-1.28-2.98-2.19-4.19-2.72Z" fill="#2a346b" stroke-width="0"/></g><g id="ap"><polygon points="971.89 1149.13 969.81 1443.69 464.87 1416.85 304.62 1204.94 454.23 1050.93 971.89 1149.13" fill="#d6a265" stroke-width="0"/><polyline points="449.19 1417.33 419.12 1415.76 257.98 1209.75 290.89 1209.75" fill="#b98252" stroke-width="0"/><polyline points="291.01 1198.27 257.7 1198.27 413.59 1052.26 437.45 1050.93" fill="#b98252" stroke-width="0"/></g><g id="aq"><path d="m517.12,1274.85c-.12,2.93-.24,5.77-.35,8.51-.11,2.74-.22,5.58-.34,8.51,0,1.41-.02,2.81-.07,4.21-.06,1.4-.14,2.8-.26,4.2-.57,6.73-3.82,10.87-9.76,12.41-2.98.71-5.82.5-8.53-.63-2.72-1.14-4.86-3.04-6.43-5.72-.92-1.35-1.62-2.82-2.13-4.4-.51-1.59-.83-3.16-.95-4.72-.67-4.31-1.11-8.62-1.32-12.9-.22-4.29-.4-8.64-.54-13.06-.19-11.43.19-22.78,1.15-34.06.96-11.27,2.17-22.56,3.65-33.84.4-3.2.95-6.3,1.66-9.27.7-2.97,1.37-5.92,2.01-8.84.34-1,.65-1.9.91-2.72.26-.81.69-1.7,1.29-2.67,1.37-2.43,3.16-4.2,5.37-5.29,2.21-1.09,4.63-1.34,7.26-.76,5.13,1.01,8.53,4.26,10.22,9.74.41,1.08.66,2.27.74,3.56.08,1.3.31,2.67.69,4.13.68-.56,1.35-1.06,2.02-1.5.67-.43,1.28-.94,1.83-1.52,4.04-3.24,8.31-6,12.81-8.27,4.48-2.26,9.23-3.97,14.27-5.13,2.88-.65,5.76-1.06,8.65-1.2,2.88-.14,5.68.21,8.4,1.05,5.64,1.96,10.11,5.22,13.44,9.76,3.32,4.53,5.19,9.87,5.62,16.04.28,5.15-.16,9.96-1.32,14.45-1.16,4.49-2.93,8.92-5.33,13.29-7.28,13.78-17.78,23.89-31.6,30.34-1.79.86-3.64,1.67-5.55,2.46-1.91.79-3.77,1.61-5.58,2.47.5,1.44,1.21,2.45,2.15,3.03,2.26,2.34,4.52,4.77,6.76,7.29,2.23,2.52,4.61,4.81,7.11,6.9,1.94,1.54,3.97,2.92,6.11,4.15,2.13,1.23,4.29,2.49,6.47,3.78.11.13.46.22,1.06.27,2.89,1.34,5.05,3.06,6.49,5.16,1.43,2.1,1.98,4.44,1.64,7.03-.45,2.46-1.64,4.59-3.59,6.38-1.95,1.8-4.39,2.98-7.32,3.54-3.78.51-7.24-.09-10.36-1.8-2.09-1.14-4.22-2.32-6.37-3.53-2.16-1.21-4.09-2.64-5.79-4.27-3.76-3.55-7.42-7.29-10.99-11.22-3.58-3.95-7.21-7.85-10.89-11.71-.57-.68-1.14-1.33-1.72-1.95-.58-.62-1.15-1.27-1.72-1.96-.37-.03-.7.07-.97.31Zm20.68-62.42c-4.46,4.12-7.4,7.96-8.83,11.52-1.43,3.56-1.69,6.28-.79,8.16.9,1.88,2.81,2.57,5.72,2.09,2.9-.48,6.49-2.67,10.78-6.56,1.87-1.71,3.56-3.79,5.05-6.23,1.5-2.44,2.62-4.79,3.36-7.05.74-2.26,1.07-4.31.98-6.16-.09-1.84-.69-3.05-1.81-3.62-1.12-.57-2.87-.29-5.24.85-2.38,1.14-5.46,3.47-9.23,7.01Z" fill="#2a346b" stroke-width="0"/><path d="m594.11,1254.76c.34-1.21.64-2.39.92-3.54.27-1.15.69-2.26,1.25-3.32,1.22-3.35,3.16-5.73,5.8-7.15,2.64-1.41,5.31-1.67,8.04-.79,2.96.66,5.24,2.21,6.83,4.63,1.58,2.42,2.23,5.4,1.93,8.92-.24,5.49-.64,10.91-1.21,16.25-.57,5.34-1.14,10.69-1.71,16.03-.32,3.77-.69,7.48-1.12,11.12-.43,3.64-.79,7.29-1.1,10.94-.55,6.45-3.43,10.43-8.65,11.94-2.38.59-4.75.38-7.12-.63-2.37-1.01-4.28-2.73-5.72-5.17-1.33-3.79-2.18-8.3-2.56-13.52-.38-5.23-.43-10.55-.15-15.98.28-5.43.85-10.77,1.72-16.03.86-5.26,1.81-9.82,2.84-13.69Zm16.85-28.76c-3.04.05-5.63-.99-7.79-3.13-2.17-2.15-3.35-4.78-3.56-7.91-.1-1.62.12-3.18.66-4.67.54-1.49,1.3-2.83,2.28-4.02.98-1.19,2.15-2.17,3.5-2.95,1.35-.77,2.85-1.19,4.49-1.25,2.91-.03,5.5,1.07,7.74,3.29,2.24,2.22,3.41,4.81,3.5,7.77.19,3.22-.81,6.08-2.98,8.61-2.18,2.53-4.8,3.95-7.84,4.25Z" fill="#2a346b" stroke-width="0"/><path d="m676.25,1223.66c1.1-2.63,2.57-4.84,4.42-6.6,1.84-1.76,4.08-2.79,6.72-3.09,3.73-.53,7.09.39,10.07,2.75,2.97,2.35,4.77,5.51,5.39,9.48.18,1.68.3,3.4.36,5.18.06,1.78.07,3.61.01,5.5-.02,4.02-.09,8.97-.22,14.86-.13,5.89-.45,12.23-.97,19.02-.52,6.79-1.31,13.86-2.36,21.2-1.05,7.34-2.43,14.46-4.14,21.35-1.71,6.9-3.84,13.34-6.39,19.32-2.55,5.99-5.61,11.12-9.16,15.37-3.56,4.26-7.69,7.38-12.39,9.36-4.72,1.98-10.18,2.36-16.39,1.12-5.58-1.22-10.75-3.23-15.52-6.05-4.79-2.83-9.27-6.48-13.45-10.95-.19-.5-.46-.94-.83-1.32-.37-.38-.71-.77-1.02-1.15-1.76-2.17-2.77-4.51-3.01-7.02-.25-2.52.31-4.95,1.65-7.31,1.34-2.36,3.24-4.12,5.69-5.31,2.44-1.18,4.94-1.51,7.51-.98,1.22.32,2.34.76,3.37,1.3,1.03.55,2.14,1.1,3.33,1.66,5.54,2.27,9.96,3.21,13.28,2.81,3.31-.4,5.98-1.82,8.02-4.27,2.03-2.44,3.62-5.9,4.77-10.36,1.15-4.46,2.25-9.64,3.3-15.54-.77-.06-1.79.34-3.07,1.2-1.29.86-2.78,1.8-4.46,2.81-1.69,1.02-3.55,1.96-5.57,2.84-2.02.88-4.15,1.36-6.4,1.44-8.64-.13-15.25-4.18-19.8-12.18-2.76-5.08-4.18-10.29-4.24-15.6-.06-5.32.93-10.69,3-16.13,7.83-21.08,22.05-32.67,42.39-34.83,1-.13,1.97-.15,2.9-.05.93.1,1.99.16,3.2.17Zm-26.46,53.18c1.35,1.2,2.97,1.27,4.84.22,1.87-1.05,3.67-2.94,5.4-5.68,1.73-2.73,3.32-6.11,4.76-10.12,1.44-4.01,2.47-8.32,3.09-12.94-3.05.79-5.85,2.14-8.4,4.06-2.56,1.93-4.68,4.2-6.35,6.82-1.68,2.63-2.84,5.48-3.5,8.56-.66,3.09-.6,6.11.15,9.07Z" fill="#2a346b" stroke-width="0"/><path d="m737.76,1308.45c-.44,1.59-.81,3.13-1.09,4.61-.28,1.48-.64,2.96-1.07,4.44-1.21,3.28-3.02,5.73-5.43,7.37-2.42,1.65-5.24,2.43-8.46,2.34-3.12-.19-5.87-1.15-8.24-2.88-2.38-1.73-3.96-4.32-4.72-7.76-1.12-4.29-1.5-8.54-1.14-12.74.79-8.04,1.67-16.59,2.66-25.67.98-9.07,1.92-17.68,2.83-25.81.88-6.61,2.12-12.86,3.73-18.74,1.61-5.87,3.85-11.14,6.71-15.81,2.86-4.65,6.49-8.56,10.88-11.71,4.37-3.15,9.7-5.31,15.98-6.51,3.65-.82,7.15-.82,10.49,0,3.33.82,6.21,2.27,8.66,4.35,2.44,2.08,4.37,4.69,5.81,7.84,1.43,3.15,2.13,6.66,2.1,10.54-.05,2.97-.39,5.7-1,8.2-.61,2.5-1.57,5-2.88,7.49-2.63,4.98-5.73,9.33-9.32,13.03-3.6,3.72-7.84,6.79-12.72,9.19-1.92.97-3.91,1.79-5.96,2.47-2.06.68-4.15,1.38-6.27,2.11-.05.58-.25,1.78-.61,3.6-.36,1.82-.54,3.32-.53,4.47,3.49-2.24,7.38-4,11.69-5.28,4.28-1.28,8.44-1.81,12.47-1.61,4.01.2,7.63,1.28,10.87,3.23,3.22,1.95,5.59,5.09,7.11,9.43.88,2.46,1.51,4.93,1.89,7.4.38,2.47.71,5.02.98,7.65.32,4.33.33,8.63.01,12.91-.31,4.28-1.14,8.52-2.49,12.73-.53,1.55-1.25,3.09-2.17,4.61-1.26,1.96-2.82,3.45-4.69,4.46-1.88,1.02-3.78,1.52-5.73,1.52-1.95,0-3.86-.5-5.73-1.47s-3.39-2.47-4.52-4.49c-.7-1.3-1.27-2.63-1.71-3.97-.44-1.34-.81-2.66-1.11-3.94-.18-1.5-.19-3.16-.03-4.99.15-1.82.34-3.67.55-5.55.21-1.88.42-3.72.62-5.54.2-1.82.27-3.53.21-5.15-.39-4.96-1.06-8.46-2-10.5-.95-2.03-2.03-2.99-3.27-2.86-1.23.13-2.54,1.11-3.92,2.95-1.38,1.85-2.7,4.1-3.95,6.77-1.25,2.67-2.37,5.56-3.35,8.66-.98,3.11-1.69,5.97-2.12,8.6Zm1.57-60.34c.75-.39,1.37-.65,1.85-.77.47-.13.93-.28,1.35-.47,7.08-3.56,12.27-8.85,15.62-15.87,1.31-3.54,2.02-6.51,2.13-8.92.1-2.41-.34-4.07-1.33-4.99-.99-.92-2.48-1.04-4.48-.35-2,.69-4.35,2.45-7.05,5.27-2.96,3.38-4.98,7.42-6.05,12.12-1.07,4.71-1.75,9.37-2.04,13.98Z" fill="#2a346b" stroke-width="0"/><path d="m813.32,1255.03c.54-2.97,1.16-6.27,1.85-9.89.69-3.62,1.41-7.29,2.16-11.02.75-3.72,1.53-7.33,2.36-10.82.82-3.48,1.59-6.64,2.31-9.46,1.03-3.12,2.71-5.23,5.05-6.34,2.33-1.1,4.72-1,7.16.31,1.91.91,3.3,2.22,4.19,3.94.89,1.72,1.33,3.74,1.32,6.07.09,6.66-.26,13.22-1.04,19.67-.78,6.45-1.44,12.86-1.98,19.23,4,.3,7.63.52,10.87.68,3.23.16,6.37.23,9.41.21,1.56.05,2.99.44,4.31,1.17,1.31.73,2.4,1.69,3.26,2.87.86,1.18,1.43,2.54,1.7,4.1.28,1.55.21,3.18-.21,4.88-.44,1.92-1.25,3.43-2.44,4.51-1.19,1.09-2.55,1.97-4.07,2.65-1.53.68-3.1,1.14-4.73,1.37-1.63.24-3.11.46-4.42.67-2.7.2-4.52.31-5.45.33-.93.03-1.68.07-2.24.13-.56.06-1.27.13-2.12.22s-2.55.24-5.09.46c-.83,6.45-1.33,12.35-1.5,17.69-.17,5.34.14,9.12.94,11.33.8,2.21,2.23,2.4,4.3.57,2.06-1.83,4.91-6.66,8.55-14.5,1.23-2.53,2.94-4.2,5.14-5,2.18-.8,4.24-.9,6.16-.3,1.92.6,3.45,1.85,4.62,3.74,1.16,1.89,1.38,4.33.68,7.32-.91,4.28-2.34,8.44-4.27,12.49-1.94,4.06-4.22,7.63-6.82,10.73s-5.47,5.57-8.58,7.4c-3.12,1.83-6.35,2.65-9.7,2.44-5.03-.31-9.31-2.32-12.82-6.03-3.53-3.72-6.33-8.33-8.39-13.82-2.07-5.5-3.39-11.43-3.95-17.79-.57-6.36-.42-12.37.45-18-1.71-.26-3.56-.68-5.54-1.25-1.99-.57-3.79-1.37-5.4-2.42-1.62-1.05-2.89-2.37-3.83-3.98-.94-1.61-1.26-3.64-.95-6.1.29-2.34,1.16-4.21,2.6-5.59,1.43-1.38,3.11-2.43,5.01-3.14,1.9-.71,3.88-1.16,5.93-1.35,2.04-.19,3.79-.32,5.24-.4Z" fill="#2a346b" stroke-width="0"/></g></g></g><g id="ar"><path d="m734.65,432.61c.03-1.65.04-3.06.01-4.25-.17-4.47-.03-8.9.39-13.27.43-4.37,1.36-8.71,2.8-13,.79-2.4,1.82-4.67,3.08-6.8,1.27-2.13,2.92-4.04,4.97-5.74,2.96-2.54,6.22-3.95,9.77-4.22,3.55-.27,7.04.53,10.47,2.4,3.13,1.93,5.86,4.47,8.17,7.61,2.36,3.23,4.46,6.61,6.3,10.14,1.83,3.53,3.56,7.12,5.2,10.76,4.07,9.88,8.01,19.51,11.81,28.89,3.79,9.38,7.86,18.67,12.19,27.85,2.63,5.04,2.43,9.23-.59,12.57-1.92,2.28-4.29,3.54-7.1,3.77-2.81.23-5.46-.64-7.96-2.6-2.19-1.8-4.11-3.77-5.74-5.89-1.63-2.12-3.16-4.36-4.59-6.7-2.55-4.32-4.8-8.35-6.75-12.09-1.95-3.74-3.76-7.47-5.44-11.2-1.68-3.73-3.23-7.58-4.67-11.55-1.44-3.97-2.94-8.39-4.51-13.27-.66-2.12-1.38-4.25-2.15-6.37-.77-2.12-1.57-4.2-2.39-6.23-.5-1.46-.94-2.38-1.32-2.76-.38-.38-.7-.42-.95-.11-.26.31-.44.85-.54,1.61-.11.77-.2,1.55-.28,2.36-.96,6.3-1.08,12.46-.37,18.48.71,6.02,1.94,12.01,3.7,17.97.63,2.25,1.32,4.47,2.07,6.66s1.42,4.47,2.02,6.85c1.49,4.16.67,7.67-2.45,10.52-1.84,1.69-3.91,2.65-6.21,2.86-2.3.21-4.46-.42-6.47-1.89-1.22-.83-2.31-1.76-3.28-2.8-.96-1.03-1.93-2.03-2.91-3-.85-.93-1.68-1.88-2.49-2.83-.81-.95-1.62-1.96-2.44-3.03-.72-.9-1.46-1.78-2.23-2.66-.76-.87-1.63-1.79-2.61-2.77.06.29.1.57.14.82.03.25.06.48.07.69,1.72,3.05,3.4,6.21,5.03,9.47,1.63,3.27,3.42,6.39,5.37,9.36,1.95,2.98,4.11,5.75,6.48,8.33,2.37,2.58,5.09,4.68,8.17,6.31,1.85.04,3.29.73,4.31,2.05,1.02,1.33,1.52,2.92,1.49,4.78-.06,1.99-.52,3.75-1.38,5.27-.86,1.52-1.98,2.73-3.36,3.61-1.38.89-2.93,1.44-4.64,1.64-1.71.21-3.45-.11-5.22-.96-1.17-.54-2.25-1.17-3.26-1.91-1.01-.73-1.98-1.55-2.91-2.43-4.97-4.8-9.5-9.96-13.59-15.48-4.09-5.52-7.77-11.37-11.06-17.57-2.71-4.99-5.07-10.02-7.08-15.08-2-5.06-3.5-10.36-4.48-15.9-.39-1.63-.68-3.29-.88-4.97s-.2-3.39,0-5.14c.16-2.37.81-4.45,1.95-6.24,1.14-1.79,2.55-3.13,4.24-4.03,1.69-.9,3.58-1.31,5.66-1.24,2.08.07,4.21.7,6.37,1.87,1.69.9,3.25,2.05,4.7,3.46,1.44,1.41,2.96,2.76,4.54,4.04.74.56,1.68,1.55,2.81,2.98Z" fill="#b62765" stroke-width="0"/><path d="m852.97,462.99c-1.64,1.51-3.41,2.8-5.31,3.86-1.91,1.06-3.88,1.92-5.94,2.58-3.81,1.31-7.52,1.6-11.14.87-3.62-.73-6.74-2.22-9.37-4.48-2.63-2.25-4.58-5.09-5.85-8.51-1.27-3.42-1.48-7.1-.64-11.04,1.33-6.65,3.92-12.4,7.76-17.26,3.84-4.85,8.84-8.82,14.99-11.91.14-.15.32-.27.54-.35.22-.08.53-.25.94-.5-1.08-5.35-2.86-10.55-5.32-15.59-.29-.5-.59-1.04-.9-1.63-.32-.59-.68-1.16-1.09-1.72-.93-1.17-1.74-1.86-2.41-2.06-.67-.2-1.68.19-3.01,1.19-3.58,2.74-6.32,6.13-8.22,10.16-.66,1.46-1.23,2.95-1.71,4.49s-.99,3.07-1.53,4.58c-.61,2.14-1.73,3.75-3.39,4.81-1.65,1.07-3.54,1.44-5.66,1.11-1.88-.21-3.4-.94-4.55-2.18-1.16-1.24-1.83-2.78-2.01-4.63-.09-.77-.09-1.33-.02-1.66.95-7.42,3.01-14.11,6.19-20.09,3.18-5.97,8.08-10.94,14.7-14.91,4.15-2.54,8.53-3.59,13.15-3.13,4.61.46,8.8,2.27,12.57,5.42,2.87,2.37,5.2,5.07,6.97,8.1,1.77,3.03,3.37,6.2,4.79,9.51,2.3,5.41,4.12,10.92,5.45,16.53,1.33,5.62,2.54,11.25,3.64,16.9,1.32,6.27,2.51,12.7,3.54,19.28.12.86.25,1.75.39,2.66.14.91.13,1.84,0,2.8-.21,2.4-.93,4.36-2.17,5.88-1.24,1.52-2.71,2.59-4.42,3.23-1.71.63-3.46.83-5.25.58-1.79-.25-3.31-.99-4.58-2.24-.15-.14-.32-.26-.5-.34-.18-.08-.39-.18-.63-.3Zm-6.34-19.15c-.48-1.84-.93-3.67-1.36-5.48-.42-1.81-.92-3.77-1.5-5.88-2.21,2.13-4.13,4.23-5.76,6.3-1.63,2.07-2.82,4.4-3.55,6.99-.3.82-.45,1.61-.47,2.37-.02.76.4,1.49,1.26,2.18,1.8-.26,3.46-.83,4.99-1.7,1.53-.87,3.66-2.46,6.39-4.79Z" fill="#b62765" stroke-width="0"/><path d="m892.72,395.89c1.17.51,1.95.43,2.32-.23.38-.67.78-1.34,1.2-2.02,1.37-3.71,2.79-7.4,4.26-11.08,1.47-3.68,2.94-7.38,4.4-11.11.29-.84.57-1.63.83-2.37.26-.74.54-1.53.83-2.37.89-1.56,2.01-2.76,3.36-3.6,1.35-.84,2.86-1.16,4.54-.95,3.65.44,6.07,2.66,7.27,6.66.79,2.64,1.04,5.15.77,7.54-.28,2.39-.81,4.79-1.61,7.21-2.46,7.83-5.9,15.31-10.34,22.43-.38.47-.71.99-1.02,1.54-.31.56-.73,1.14-1.26,1.74,2.29,2.49,4.54,4.8,6.75,6.92,2.21,2.12,4.69,3.99,7.46,5.59.47.38.96.63,1.47.76.51.13,1.01.23,1.51.31.5.08,1,.16,1.5.24.5.08.95.17,1.36.28,2.33.54,4.25,1.59,5.75,3.14,1.5,1.55,2.35,3.38,2.53,5.47.13,2.3-.33,4.39-1.39,6.28-1.06,1.89-2.64,3.31-4.72,4.27-2.07,1.05-4.22,1.51-6.46,1.39-2.24-.12-4.4-.77-6.49-1.95-1.21-.69-2.36-1.41-3.43-2.13-1.08-.73-2.11-1.56-3.09-2.5-2-2.07-3.98-4.1-5.91-6.09-1.94-1.99-3.9-3.97-5.88-5.95-.49-.47-.93-.93-1.32-1.38-.39-.44-.86-.85-1.42-1.21.5,3.09.99,6.18,1.45,9.28.46,3.1,1.49,6.07,3.09,8.91,2.43,4.4,2.23,8.18-.6,11.35-1.56,1.61-3.36,2.58-5.39,2.89-2.04.32-4.05-.08-6.03-1.18-1.91-1.22-3.51-2.68-4.81-4.37-1.3-1.69-2.31-3.53-3.04-5.5-1.94-6.45-3.76-13.03-5.47-19.73-1.71-6.7-3.11-13.42-4.2-20.16-1.09-6.74-1.78-13.5-2.06-20.28-.29-6.78.07-13.48,1.07-20.11.29-2.1.86-4.27,1.7-6.5,1.93-3.35,4.6-4.92,8-4.72,3.76.51,6.16,2.64,7.2,6.38.42,1.85.8,3.75,1.15,5.71.35,1.96.64,3.88.87,5.77.55,4.15,1.07,8.23,1.54,12.24.48,4.02.98,8.05,1.51,12.11-.05.21-.03.4.06.57.09.18.15.35.19.54Z" fill="#b62765" stroke-width="0"/><path d="m949.06,371.05c-2.38.59-4.59.28-6.63-.94-2.05-1.22-3.4-2.97-4.08-5.27-.34-1.2-.43-2.4-.25-3.62.17-1.21.55-2.36,1.12-3.44.57-1.08,1.32-2.03,2.25-2.87.93-.84,2.03-1.43,3.31-1.79,2.28-.58,4.5-.24,6.64,1.01,2.14,1.25,3.5,2.99,4.07,5.2.68,2.4.37,4.75-.93,7.06-1.31,2.32-3.14,3.86-5.49,4.64Zm-8.46,24.56c.06-.96.11-1.9.13-2.81.03-.91.17-1.81.43-2.7.4-2.72,1.52-4.85,3.36-6.37,1.83-1.52,3.9-2.19,6.19-2.01,2.45-.03,4.51.73,6.17,2.29,1.66,1.55,2.67,3.69,3.02,6.41.73,4.2,1.31,8.37,1.75,12.52.44,4.15.87,8.29,1.31,12.43.37,2.91.69,5.78.96,8.61.27,2.83.58,5.65.95,8.47.64,4.98-1,8.43-4.9,10.36-1.79.8-3.7,1-5.73.59-2.03-.41-3.82-1.42-5.35-3.04-1.66-2.65-3.07-5.9-4.23-9.77-1.16-3.86-2.07-7.85-2.74-11.96-.67-4.11-1.1-8.21-1.29-12.29-.19-4.08-.2-7.66-.03-10.73Z" fill="#b62765" stroke-width="0"/><path d="m1006.49,399.77c-1.42,4.95-2.5,10.03-3.26,15.25-.76,5.22-1.33,10.39-1.71,15.51-.32,3.13-1.62,5.69-3.88,7.66-2.26,1.98-4.76,2.71-7.48,2.18-2.35-.34-4.45-1.23-6.3-2.67-1.85-1.44-3.31-3.33-4.38-5.68-.78-1.88-1.54-3.74-2.27-5.57-.73-1.83-1.25-3.69-1.57-5.58-1.35-8.21-2.4-16.39-3.14-24.52-.74-8.13-.76-16.37-.05-24.71.24-2.56.66-5.15,1.28-7.76.61-2.61,1.27-5.2,1.98-7.77.79-2.95,2.49-5.25,5.08-6.9,2.69-1.56,5.36-1.77,8-.63,2.64,1.14,4.46,3.31,5.45,6.51.4,1.41.68,2.85.84,4.32.16,1.47.35,2.86.56,4.18.23,2.36.43,4.7.61,7.02.18,2.32.34,4.85.48,7.59.55-.86,1-1.6,1.37-2.22.36-.62.77-1.27,1.23-1.94,2.09-3.63,4.45-6.91,7.07-9.84,2.62-2.93,5.69-5.42,9.22-7.46,2.69-1.46,5.39-2.34,8.11-2.62,2.71-.28,5.34.03,7.88.94,2.54.91,4.88,2.33,7.02,4.29s3.98,4.39,5.53,7.29c1.16,2.35,2.14,4.98,2.94,7.9.5,2.08.97,5.26,1.42,9.56.44,4.3.66,9.03.65,14.19,0,5.16-.28,10.4-.8,15.71-.52,5.31-1.47,10.09-2.86,14.32-1.38,4.24-3.25,7.58-5.6,10.03-2.35,2.45-5.35,3.33-9.02,2.63-2.45-.53-4.53-1.8-6.24-3.8-1.72-2.01-2.7-4.48-2.93-7.41-.12-1.42-.15-3.36-.1-5.82.05-2.46.17-5.04.37-7.75.19-2.7.36-5.28.5-7.75.15-2.46.21-4.45.18-5.97-.02-6.91-.3-12.8-.85-17.67-.55-4.87-1.44-7.86-2.68-8.97-1.24-1.12-2.88.1-4.93,3.63-2.05,3.54-4.63,10.3-7.75,20.29Z" fill="#b62765" stroke-width="0"/><path d="m1104.26,366.31c1.05-2.05,2.41-3.74,4.07-5.08,1.66-1.34,3.64-2.08,5.93-2.23,3.26-.29,6.14.56,8.64,2.54,2.5,1.99,3.95,4.59,4.33,7.8.09,1.35.12,2.74.1,4.18-.02,1.43-.09,2.91-.21,4.42-.18,3.23-.45,7.2-.81,11.94-.36,4.73-.9,9.82-1.64,15.26-.74,5.44-1.73,11.08-2.95,16.93-1.23,5.85-2.73,11.49-4.51,16.92-1.78,5.43-3.91,10.46-6.37,15.08-2.47,4.62-5.32,8.48-8.56,11.6-3.24,3.12-6.91,5.26-11.01,6.44-4.1,1.18-8.73,1.01-13.91-.51-4.62-1.44-8.84-3.46-12.68-6.07-3.83-2.61-7.37-5.83-10.6-9.64-.13-.4-.34-.77-.62-1.09-.29-.33-.54-.65-.78-.97-1.35-1.82-2.06-3.72-2.16-5.69-.09-1.98.46-3.83,1.66-5.57,1.2-1.74,2.82-2.99,4.87-3.74,2.05-.75,4.12-.84,6.21-.25.99.34,1.9.75,2.73,1.26.83.5,1.72,1.02,2.69,1.54,4.51,2.18,8.17,3.24,10.97,3.17,2.8-.07,5.11-1,6.93-2.8,1.82-1.79,3.31-4.42,4.48-7.89,1.16-3.47,2.32-7.51,3.46-12.13-.65-.09-1.54.16-2.67.76-1.13.6-2.43,1.25-3.9,1.95-1.47.7-3.08,1.33-4.82,1.89-1.74.56-3.55.8-5.43.72-7.19-.66-12.49-4.25-15.9-10.77-2.05-4.12-2.99-8.25-2.82-12.39.17-4.14,1.22-8.26,3.14-12.39,7.34-16.06,19.64-24.56,36.91-25.5.86-.07,1.68-.04,2.47.07.79.11,1.7.2,2.73.25Zm-24.64,40.77c1.08,1.02,2.43,1.17,4.05.44,1.62-.72,3.22-2.12,4.79-4.18,1.58-2.07,3.06-4.65,4.46-7.75,1.39-3.1,2.45-6.46,3.16-10.09-2.62.48-5.06,1.42-7.29,2.82-2.24,1.4-4.12,3.09-5.63,5.07-1.52,1.98-2.61,4.17-3.29,6.55-.68,2.39-.76,4.77-.25,7.14Z" fill="#b62765" stroke-width="0"/><path d="m1203.62,405.9c1.22-2.26,2.59-4.77,4.11-7.53,1.52-2.76,3.08-5.54,4.68-8.37,1.6-2.82,3.21-5.54,4.82-8.16,1.61-2.61,3.1-4.97,4.46-7.08,1.72-2.26,3.83-3.53,6.31-3.8,2.48-.27,4.74.46,6.76,2.2,1.61,1.26,2.63,2.73,3.07,4.39.44,1.66.37,3.44-.2,5.36-1.53,5.51-3.45,10.81-5.76,15.9-2.32,5.09-4.5,10.18-6.56,15.27,3.77,1.42,7.2,2.69,10.29,3.78,3.09,1.1,6.12,2.1,9.09,2.99,1.51.51,2.82,1.27,3.93,2.28,1.11,1.01,1.94,2.14,2.49,3.38.56,1.25.78,2.56.67,3.95-.11,1.39-.58,2.73-1.4,4.03-.9,1.47-2.07,2.48-3.5,3.03-1.43.54-2.98.86-4.63.96-1.66.1-3.31-.01-4.95-.32-1.64-.31-3.13-.58-4.45-.81-2.66-.67-4.44-1.13-5.34-1.4-.9-.26-1.63-.46-2.19-.58-.56-.12-1.25-.28-2.09-.46-.83-.18-2.5-.57-4.98-1.17-2.36,5.07-4.27,9.79-5.73,14.15-1.46,4.36-2.08,7.58-1.87,9.66.22,2.08,1.54,2.69,3.96,1.83,2.42-.86,6.33-3.97,11.74-9.34,1.81-1.72,3.87-2.57,6.19-2.55,2.32.02,4.33.58,6.06,1.69,1.72,1.11,2.92,2.64,3.59,4.6.67,1.96.29,4.08-1.13,6.36-1.94,3.3-4.36,6.33-7.24,9.09-2.89,2.76-5.97,5.01-9.25,6.75-3.28,1.74-6.64,2.85-10.07,3.35-3.44.5-6.71.11-9.84-1.15-4.69-1.9-8.23-4.94-10.62-9.13-2.4-4.19-3.89-8.85-4.49-14-.59-5.14-.39-10.4.62-15.76,1.01-5.36,2.59-10.21,4.75-14.54-1.53-.72-3.14-1.6-4.84-2.65-1.7-1.04-3.17-2.23-4.4-3.54-1.24-1.32-2.09-2.76-2.56-4.33-.48-1.57-.28-3.3.59-5.2.83-1.81,2.08-3.07,3.73-3.78s3.44-1.08,5.38-1.12c1.93-.03,3.87.17,5.82.6,1.95.43,3.61.82,4.98,1.17Z" fill="#b62765" stroke-width="0"/><path d="m1265.58,490.04c-.92.99-1.76,1.98-2.52,2.96-.76.98-1.57,1.93-2.45,2.84-2.14,1.92-4.47,2.97-6.99,3.17-2.52.2-5.05-.42-7.59-1.83-2.41-1.45-4.24-3.3-5.51-5.55-1.27-2.25-1.6-4.8-.98-7.63.63-3.6,1.83-6.85,3.59-9.77,3.45-5.55,7.15-11.44,11.12-17.67,3.97-6.23,7.74-12.14,11.32-17.72,3.02-4.48,6.21-8.55,9.57-12.22,3.36-3.67,7.01-6.66,10.97-8.98,3.96-2.31,8.29-3.79,13-4.44,4.71-.65,9.88-.21,15.53,1.3,3.34.8,6.28,2.15,8.79,4.05,2.52,1.9,4.44,4.11,5.77,6.62,1.33,2.51,2.04,5.23,2.14,8.16.09,2.93-.57,5.85-1.98,8.75-1.11,2.21-2.37,4.12-3.79,5.76-1.42,1.63-3.13,3.12-5.14,4.45-4.01,2.67-8.19,4.66-12.53,5.97-4.34,1.31-8.97,1.87-13.88,1.68-1.93-.06-3.86-.25-5.79-.59-1.93-.33-3.9-.66-5.89-.97-.24.41-.84,1.21-1.78,2.41-.94,1.2-1.62,2.23-2.02,3.09,3.64-.24,7.46.04,11.46.85,4,.8,7.64,2.11,10.92,3.92,3.28,1.81,5.93,4.12,7.96,6.94,2.02,2.82,2.89,6.19,2.61,10.1-.14,2.23-.5,4.37-1.07,6.4-.57,2.03-1.21,4.1-1.93,6.21-1.29,3.42-2.85,6.68-4.66,9.79-1.82,3.11-4.05,5.96-6.71,8.56-1,.94-2.17,1.79-3.49,2.54-1.76.93-3.61,1.37-5.54,1.31-1.93-.06-3.71-.52-5.32-1.38-1.61-.86-3.02-2.07-4.22-3.61-1.2-1.55-1.91-3.33-2.12-5.33-.11-1.28-.1-2.52.02-3.72.12-1.2.29-2.34.5-3.43.39-1.2.98-2.45,1.76-3.75.78-1.3,1.59-2.6,2.44-3.92.84-1.31,1.68-2.61,2.5-3.88.82-1.27,1.49-2.53,2.02-3.76,1.45-3.87,2.16-6.77,2.11-8.68-.05-1.91-.61-3.07-1.67-3.49-1.06-.42-2.49-.23-4.28.57-1.79.8-3.68,1.93-5.65,3.4-1.97,1.46-3.91,3.14-5.82,5.04-1.91,1.89-3.5,3.72-4.78,5.49Zm22.71-44.01c.75.01,1.35.07,1.79.16.43.1.86.16,1.28.19,7.1.19,13.3-1.67,18.59-5.55,2.36-2.11,4.02-4.05,4.96-5.8.94-1.75,1.17-3.16.67-4.24-.5-1.07-1.71-1.75-3.62-2.01-1.92-.27-4.49.11-7.74,1.15-3.65,1.34-6.75,3.54-9.29,6.59-2.55,3.05-4.76,6.23-6.63,9.52Z" fill="#b62765" stroke-width="0"/><path d="m1340.94,517.53c-2.09,2.69-3.37,5.29-3.84,7.78-.47,2.49-.24,4.58.68,6.25.92,1.68,2.49,2.87,4.7,3.58,2.21.71,4.91.66,8.11-.14,3.52-.9,6.71-.13,9.54,2.32,1.98,1.87,2.97,4.13,2.99,6.77.01,2.64-1,4.91-3.03,6.79-.99.91-2.05,1.65-3.2,2.24-1.15.59-2.3,1.14-3.46,1.66-5.14,1.54-10.17,2.13-15.08,1.77-4.92-.36-9.73-1.87-14.46-4.52-3.96-2.27-6.89-5.11-8.82-8.52-1.92-3.41-3.16-7.37-3.71-11.86-.31-3.31-.15-6.61.48-9.89.63-3.28,1.57-6.45,2.83-9.53,1.25-3.07,2.71-6.04,4.39-8.89,1.67-2.85,3.43-5.48,5.29-7.88,3.45-4.64,7.35-8.81,11.72-12.51,4.37-3.7,8.98-6.41,13.84-8.11,4.86-1.71,9.88-2.18,15.06-1.42,5.19.77,10.32,3.3,15.4,7.59,2.46,2.02,4.5,4.37,6.12,7.04,1.62,2.68,2.75,5.47,3.39,8.38.64,2.91.73,5.9.28,8.96-.45,3.06-1.51,6.05-3.18,8.96-2.7,4.76-6.12,8.48-10.25,11.16-4.13,2.67-8.38,4.27-12.74,4.79-4.37.52-8.52-.1-12.46-1.87-3.94-1.77-7.04-4.74-9.3-8.92-.16-.25-.3-.49-.42-.71-.12-.22-.22-.43-.31-.62-.07-.06-.26-.27-.56-.64Zm13.16-13.82c-.63,2.54-.71,4.59-.23,6.15.48,1.56,1.23,2.63,2.26,3.23,1.02.6,2.26.75,3.7.47,1.44-.28,2.85-.93,4.23-1.95,1.38-1.01,2.58-2.41,3.62-4.19,1.04-1.78,1.71-3.89,2.02-6.33.1-3.22-.6-5.21-2.11-5.96-1.51-.75-3.21-.74-5.11.03-1.9.77-3.71,2.01-5.42,3.73-1.71,1.72-2.7,3.33-2.96,4.83Z" fill="#b62765" stroke-width="0"/></g></svg>